<svg width="2439" height="1172" viewBox="0 0 2439 1172" fill="none" xmlns="http://www.w3.org/2000/svg">
<path d="M2248.34 1164.91L2250.54 1143.72L2267.79 1156.22L2248.34 1164.91Z" fill="#424242"/>
<path d="M0.456055 1032.48C72.2152 872.372 223.446 595.143 520.29 361.298C638.243 268.362 985.188 18.2436 1474.35 1.1723C1779.08 -9.46608 2107.3 106.875 2259.2 298.748C2282.01 327.571 2347.71 410.584 2322.53 450.394C2306.79 475.278 2269.27 477.689 2225.82 468.031C2105.08 436.864 2055.61 376.175 2055.61 376.175C2047.58 367.847 1998.08 315.503 2014.45 281.56C2015.71 278.95 2017.84 275.443 2022.28 271.304C2048.06 247.135 2101.7 247.617 2151.84 257.507C2151.84 257.507 2234.18 275.31 2287.24 314.323C2363.01 366.102 2514.65 521.854 2391.86 893.849C2391.86 893.849 2357.85 997.307 2312.84 1068.67C2308.55 1075.94 2291.4 1102.97 2257.16 1152.88" stroke="#424242" stroke-miterlimit="10" stroke-dasharray="6 6"/>
</svg>
