<svg width="305" height="305" viewBox="0 0 305 305" fill="none" xmlns="http://www.w3.org/2000/svg">
<path d="M304.682 121.905V101.628H284.365V60.9933H264.088V60.9527V40.6351H243.77V20.3582H203.135V0H101.547V20.3176H60.912V40.5945H40.6351V60.9527H20.2769V101.547L0 101.588V203.135H20.3176V243.77H40.6351V243.811V264.088H60.912V284.405H101.547V304.723H142.182H162.5H182.817H203.135V284.446L223.452 284.405H243.77V264.088H264.088V243.77H284.405V203.176H304.723V182.858V162.54V142.223V121.905H304.682ZM101.507 142.223V121.946H121.824V142.223H101.507ZM203.094 203.176H182.817V223.452H121.905V203.176H101.588V182.817H121.946V203.135H182.858V182.817H203.135V203.135L203.094 203.176ZM203.094 142.223H182.777V121.905H203.094V142.223Z" fill="#E5E5E5"/>
</svg>
