<svg width="372" height="372" viewBox="0 0 372 372" fill="none" xmlns="http://www.w3.org/2000/svg">
<path d="M318.642 212.429H371.749V159.322H318.642V123.917H300.94V106.215H318.642V88.5123H336.345V70.8098H318.642V53.1074H300.94V35.4049H283.238V53.1074H265.535V70.8098H247.833V53.1074H212.428V0H159.321V53.1074H123.916V70.8098H106.214V53.1074H88.5118V35.4049H70.8094V53.1074H53.1071V70.8098H35.4047V88.5123H53.1071V106.215H70.8094V123.917H53.1071V159.322H0V212.429H53.1071V247.834H70.8094V265.537H53.1071V283.239H35.4047V300.942H53.1071V318.644H70.8094V336.347H88.5118V318.644H106.214V300.942H123.916V318.644H159.321V371.752H212.428V318.644H247.833V300.942H265.535V318.644H283.238V336.347H300.94V318.644H318.642V300.942H336.345V283.239H318.642V265.537H300.94V247.834H318.642V212.429ZM247.833 177.025V212.429H230.131V230.132H212.428V247.834H159.321V230.132H141.619V212.429H123.916V159.322H141.619V141.62H159.321V123.917H212.428V141.62H230.131V159.322H247.833V177.025Z" fill="#F0F0F0"/>
</svg>
