<svg width="40" height="40" viewBox="0 0 40 40" fill="none" xmlns="http://www.w3.org/2000/svg">
<path d="M10.143 39.8585C7.76414 39.7503 6.4719 39.3545 5.61239 39.0192C4.4735 38.5758 3.66154 38.048 2.80679 37.1944C1.95203 36.3408 1.42301 35.5289 0.98196 34.39C0.646714 33.5305 0.25084 32.2382 0.142658 29.8594C0.0237763 27.288 0 26.5165 0 20.0018C0 13.4871 0.0261539 12.7167 0.141469 10.143C0.249651 7.76414 0.647903 6.47428 0.980771 5.61239C1.4242 4.4735 1.95322 3.66154 2.8056 2.8056C3.65917 1.95203 4.47113 1.42182 5.6112 0.980771C6.47071 0.645526 7.76295 0.249651 10.1418 0.141469C12.7144 0.0237763 13.4871 0 19.9994 0C26.5141 0 27.2845 0.0261539 29.8582 0.141469C32.237 0.249651 33.5269 0.647903 34.3888 0.980771C35.5277 1.42182 36.3396 1.95203 37.1944 2.8056C38.0492 3.65917 38.5758 4.47232 39.0192 5.6112C39.3545 6.47071 39.7503 7.76295 39.8585 10.1418C39.9762 12.7155 40 13.4859 40 20.0006C40 26.5129 39.9762 27.2856 39.8585 29.8594C39.7503 32.2382 39.3521 33.5305 39.0192 34.39C38.5758 35.5289 38.048 36.3408 37.1944 37.1944C36.3408 38.048 35.5277 38.5758 34.3888 39.0192C33.5293 39.3545 32.237 39.7503 29.8582 39.8585C27.2868 39.9762 26.5141 40 19.9994 40C13.4871 40 12.7144 39.9774 10.143 39.8585Z" fill="url(#paint0_radial_1844_110854)"/>
<path d="M10.143 39.8585C7.76414 39.7503 6.4719 39.3545 5.61239 39.0192C4.4735 38.5758 3.66154 38.048 2.80679 37.1944C1.95203 36.3408 1.42301 35.5289 0.98196 34.39C0.646714 33.5305 0.25084 32.2382 0.142658 29.8594C0.0237763 27.288 0 26.5165 0 20.0018C0 13.4871 0.0261539 12.7167 0.141469 10.143C0.249651 7.76414 0.647903 6.47428 0.980771 5.61239C1.4242 4.4735 1.95322 3.66154 2.8056 2.8056C3.65917 1.95203 4.47113 1.42182 5.6112 0.980771C6.47071 0.645526 7.76295 0.249651 10.1418 0.141469C12.7144 0.0237763 13.4871 0 19.9994 0C26.5141 0 27.2845 0.0261539 29.8582 0.141469C32.237 0.249651 33.5269 0.647903 34.3888 0.980771C35.5277 1.42182 36.3396 1.95203 37.1944 2.8056C38.0492 3.65917 38.5758 4.47232 39.0192 5.6112C39.3545 6.47071 39.7503 7.76295 39.8585 10.1418C39.9762 12.7155 40 13.4859 40 20.0006C40 26.5129 39.9762 27.2856 39.8585 29.8594C39.7503 32.2382 39.3521 33.5305 39.0192 34.39C38.5758 35.5289 38.048 36.3408 37.1944 37.1944C36.3408 38.048 35.5277 38.5758 34.3888 39.0192C33.5293 39.3545 32.237 39.7503 29.8582 39.8585C27.2868 39.9762 26.5141 40 19.9994 40C13.4871 40 12.7144 39.9774 10.143 39.8585Z" fill="url(#paint1_radial_1844_110854)"/>
<path d="M15.0887 20.0858C15.0887 17.3502 17.3057 15.132 20.0413 15.132C22.7769 15.132 24.9951 17.3502 24.9951 20.0858C24.9951 22.8213 22.7769 25.0395 20.0413 25.0395C17.3057 25.0395 15.0887 22.8213 15.0887 20.0858ZM12.4108 20.0858C12.4108 24.3001 15.827 27.7163 20.0413 27.7163C24.2557 27.7163 27.6718 24.3001 27.6718 20.0858C27.6718 15.8714 24.2557 12.4552 20.0413 12.4552C15.827 12.4552 12.4109 15.8712 12.4109 20.0858M26.1908 12.1527C26.1907 12.5054 26.2951 12.8502 26.4909 13.1435C26.6868 13.4368 26.9652 13.6655 27.291 13.8006C27.6168 13.9357 27.9753 13.9712 28.3212 13.9025C28.6672 13.8338 28.985 13.6641 29.2345 13.4148C29.4839 13.1655 29.6539 12.8479 29.7228 12.502C29.7918 12.1561 29.7566 11.7975 29.6218 11.4716C29.4869 11.1458 29.2585 10.8672 28.9653 10.6711C28.6722 10.475 28.3274 10.3703 27.9747 10.3702H27.974C27.5013 10.3704 27.048 10.5582 26.7136 10.8925C26.3793 11.2267 26.1912 11.6799 26.1908 12.1527ZM14.0378 32.1817C12.589 32.1157 11.8015 31.8744 11.2782 31.6705C10.5844 31.4004 10.0894 31.0787 9.56894 30.559C9.04848 30.0392 8.72631 29.5447 8.4574 28.8509C8.2534 28.3278 8.01207 27.5401 7.94621 26.0913C7.87417 24.5249 7.85979 24.0544 7.85979 20.086C7.85979 16.1176 7.87536 15.6484 7.94621 14.0807C8.01219 12.6319 8.2553 11.8457 8.4574 11.3211C8.7275 10.6273 9.04919 10.1323 9.56894 9.61183C10.0887 9.09137 10.5832 8.7692 11.2782 8.50029C11.8013 8.29629 12.589 8.05496 14.0378 7.9891C15.6042 7.91706 16.0747 7.90267 20.0413 7.90267C24.0079 7.90267 24.4789 7.91801 26.0466 7.98934C27.4954 8.05532 28.2816 8.29843 28.8062 8.50053C29.5 8.76944 29.995 9.09232 30.5155 9.61207C31.0359 10.1318 31.3569 10.6276 31.627 11.3213C31.831 11.8444 32.0723 12.6321 32.1382 14.0809C32.2102 15.6486 32.2246 16.1178 32.2246 20.0862C32.2246 24.0546 32.2102 24.5238 32.1382 26.0915C32.0722 27.5403 31.8297 28.3278 31.627 28.8511C31.3569 29.5449 31.0352 30.0399 30.5155 30.5592C29.9957 31.0785 29.5 31.4006 28.8062 31.6707C28.2831 31.8747 27.4954 32.1161 26.0466 32.1819C24.4802 32.254 24.0097 32.2684 20.0413 32.2684C16.0729 32.2684 15.6037 32.254 14.0378 32.1819M13.9148 5.31558C12.3328 5.38762 11.2518 5.63846 10.3078 6.0058C9.33071 6.38515 8.50246 6.89409 7.6754 7.71984C6.84834 8.54558 6.34072 9.37395 5.96137 10.3522C5.59403 11.2969 5.34319 12.3772 5.27115 13.9592C5.19791 15.5437 5.18115 16.0502 5.18115 20.0858C5.18115 24.1213 5.19791 24.6278 5.27115 26.2123C5.34319 27.7944 5.59403 28.8746 5.96137 29.8193C6.34072 30.7964 6.84846 31.6263 7.6754 32.4517C8.50234 33.2771 9.32952 33.7853 10.3078 34.1657C11.2536 34.533 12.3328 34.7839 13.9148 34.8559C15.5001 34.928 16.0058 34.9459 20.0413 34.9459C24.0769 34.9459 24.5834 34.9292 26.1679 34.8559C27.7499 34.7839 28.8302 34.533 29.7748 34.1657C30.7519 33.7853 31.5802 33.2774 32.4072 32.4517C33.2343 31.6259 33.7408 30.7964 34.1213 29.8193C34.4886 28.8746 34.7406 27.7943 34.8115 26.2123C34.8835 24.6267 34.9003 24.1213 34.9003 20.0858C34.9003 16.0502 34.8835 15.5437 34.8115 13.9592C34.7395 12.3771 34.4886 11.2963 34.1213 10.3522C33.7408 9.37514 33.233 8.54689 32.4072 7.71984C31.5815 6.89278 30.7519 6.38515 29.776 6.0058C28.8302 5.63846 27.7498 5.38643 26.1691 5.31558C24.5844 5.24318 24.0781 5.22559 20.0431 5.22559C16.0082 5.22559 15.5006 5.24235 13.9154 5.31558" fill="white"/>
<defs>
<radialGradient id="paint0_radial_1844_110854" cx="0" cy="0" r="1" gradientUnits="userSpaceOnUse" gradientTransform="translate(2.58876 39.1237) scale(50.7852)">
<stop offset="0.09" stop-color="#FA8F21"/>
<stop offset="0.78" stop-color="#D82D7E"/>
</radialGradient>
<radialGradient id="paint1_radial_1844_110854" cx="0" cy="0" r="1" gradientUnits="userSpaceOnUse" gradientTransform="translate(27.7066 37.8393) scale(44.6914)">
<stop offset="0.64" stop-color="#8C3AAA" stop-opacity="0"/>
<stop offset="1" stop-color="#8C3AAA"/>
</radialGradient>
</defs>
</svg>
