<svg width="120" height="111" viewBox="0 0 120 111" fill="none" xmlns="http://www.w3.org/2000/svg">
<path d="M116.842 59.9999V56.842H113.684V47.3683H107.368V44.2104H101.053V41.0525H104.21V37.8946H107.368V34.7367H110.526V25.263H107.368V22.1051H104.21V18.9472H88.421V22.1051H85.2631V18.9472H88.421V9.47351H85.2631V6.31561H69.4736V9.47351H63.1578V12.6314H56.842V6.31561H53.6841V3.15771H37.8946V6.31561H34.7367V9.47351H31.5788V25.263H25.263V22.1051H12.6314V25.263H9.47351V28.4209H6.31561V31.5788H3.15771V47.3683H6.31561V53.6841H9.47351V56.842H12.6314V59.9999H18.9472V63.1578H22.1051V66.3157H15.7893V69.4736H9.47351V72.6315H6.31561V88.421H9.47351V91.5789H25.263V94.7368H28.4209V101.053H34.7367V104.211H47.3683V101.053H53.6841V97.8947H59.9999V101.053H63.1578V104.211H66.3157V107.368H82.1052V104.211H85.2631V97.8947H88.421V94.7368H91.5789V97.8947H107.368V94.7368H110.526V91.5789H113.684V78.9473H110.526V75.7894H107.368V72.6315H110.526V69.4736H113.684V66.3157H116.842V59.9999ZM59.9999 53.6841V63.1578H56.842V69.4736H53.6841V72.6315H44.2104V69.4736H41.0525V63.1578H37.8946V50.5262H41.0525V44.2104H44.2104V41.0525H53.6841V44.2104H56.842V50.5262H59.9999V53.6841ZM85.2631 53.6841V63.1578H82.1052V69.4736H78.9473V72.6315H69.4736V69.4736H66.3157V63.1578H63.1578V50.5262H66.3157V44.2104H69.4736V41.0525H78.9473V44.2104H82.1052V50.5262H85.2631V53.6841Z" fill="#D390FF"/>
<path d="M47.369 66.3157V63.1578V59.9999V56.842H50.5269V53.6841H53.6848H56.8427V50.5262H53.6848V47.3683V44.2104H50.5269H47.369H44.2111V47.3683V50.5262H41.0532V53.6841V56.842V59.9999V63.1578H44.2111V66.3157V69.4736H47.369V66.3157Z" fill="white"/>
<path d="M72.6307 66.3157V63.1578V59.9999V56.842H75.7886V53.6841H78.9465H82.1044V50.5262H78.9465V47.3683V44.2104H75.7886H72.6307H69.4728V47.3683V50.5262H66.3149V53.6841V56.842V59.9999V63.1578H69.4728V66.3157V69.4736H72.6307V66.3157Z" fill="white"/>
<path d="M31.5793 22.1052H28.4214V25.2631H31.5793V22.1052Z" fill="black"/>
<path d="M31.5793 18.9473H28.4214V22.1052H31.5793V18.9473Z" fill="black"/>
<path d="M31.5793 15.7893H28.4214V18.9472H31.5793V15.7893Z" fill="black"/>
<path d="M31.5793 12.6313H28.4214V15.7892H31.5793V12.6313Z" fill="black"/>
<path d="M31.5793 9.47363H28.4214V12.6315H31.5793V9.47363Z" fill="black"/>
<path d="M34.737 6.31567H31.5791V9.47357H34.737V6.31567Z" fill="black"/>
<path d="M41.0534 0H37.8955V3.1579H41.0534V0Z" fill="black"/>
<path d="M44.2111 0H41.0532V3.1579H44.2111V0Z" fill="black"/>
<path d="M47.3688 0H44.2109V3.1579H47.3688V0Z" fill="black"/>
<path d="M50.5266 0H47.3687V3.1579H50.5266V0Z" fill="black"/>
<path d="M53.6843 0H50.5264V3.1579H53.6843V0Z" fill="black"/>
<path d="M56.843 3.15771H53.6851V6.31561H56.843V3.15771Z" fill="black"/>
<path d="M59.9997 6.31567H56.8418V9.47357H59.9997V6.31567Z" fill="black"/>
<path d="M59.9997 9.47363H56.8418V12.6315H59.9997V9.47363Z" fill="black"/>
<path d="M63.1584 9.47363H60.0005V12.6315H63.1584V9.47363Z" fill="black"/>
<path d="M66.3161 6.31567H63.1582V9.47357H66.3161V6.31567Z" fill="black"/>
<path d="M69.4728 6.31567H66.3149V9.47357H69.4728V6.31567Z" fill="black"/>
<path d="M72.6315 3.15771H69.4736V6.31561H72.6315V3.15771Z" fill="black"/>
<path d="M75.7892 3.15771H72.6313V6.31561H75.7892V3.15771Z" fill="black"/>
<path d="M78.947 3.15771H75.7891V6.31561H78.947V3.15771Z" fill="black"/>
<path d="M82.1057 3.15771H78.9478V6.31561H82.1057V3.15771Z" fill="black"/>
<path d="M85.2624 3.15771H82.1045V6.31561H85.2624V3.15771Z" fill="black"/>
<path d="M88.4211 6.31567H85.2632V9.47357H88.4211V6.31567Z" fill="black"/>
<path d="M91.5798 9.47363H88.4219V12.6315H91.5798V9.47363Z" fill="black"/>
<path d="M91.5798 12.6313H88.4219V15.7892H91.5798V12.6313Z" fill="black"/>
<path d="M91.5798 15.7893H88.4219V18.9472H91.5798V15.7893Z" fill="black"/>
<path d="M88.4211 18.9473H85.2632V22.1052H88.4211V18.9473Z" fill="black"/>
<path d="M94.7375 15.7893H91.5796V18.9472H94.7375V15.7893Z" fill="black"/>
<path d="M97.8952 15.7893H94.7373V18.9472H97.8952V15.7893Z" fill="black"/>
<path d="M101.053 15.7893H97.895V18.9472H101.053V15.7893Z" fill="black"/>
<path d="M104.211 15.7893H101.053V18.9472H104.211V15.7893Z" fill="black"/>
<path d="M107.368 18.9473H104.21V22.1052H107.368V18.9473Z" fill="black"/>
<path d="M110.526 22.1052H107.368V25.2631H110.526V22.1052Z" fill="black"/>
<path d="M113.684 25.2632H110.526V28.4211H113.684V25.2632Z" fill="black"/>
<path d="M113.684 28.4209H110.526V31.5788H113.684V28.4209Z" fill="black"/>
<path d="M113.684 31.5789H110.526V34.7368H113.684V31.5789Z" fill="black"/>
<path d="M110.526 34.7368H107.368V37.8947H110.526V34.7368Z" fill="black"/>
<path d="M107.368 37.8948H104.21V41.0527H107.368V37.8948Z" fill="black"/>
<path d="M104.211 41.0525H101.053V44.2104H104.211V41.0525Z" fill="black"/>
<path d="M107.368 41.0525H104.21V44.2104H107.368V41.0525Z" fill="black"/>
<path d="M110.526 44.2104H107.368V47.3683H110.526V44.2104Z" fill="black"/>
<path d="M113.684 44.2104H110.526V47.3683H113.684V44.2104Z" fill="black"/>
<path d="M116.842 47.3684H113.685V50.5263H116.842V47.3684Z" fill="black"/>
<path d="M116.842 50.5261H113.685V53.684H116.842V50.5261Z" fill="black"/>
<path d="M116.842 53.6843H113.685V56.8422H116.842V53.6843Z" fill="black"/>
<path d="M120 56.842H116.842V59.9999H120V56.842Z" fill="black"/>
<path d="M120 60H116.842V63.1579H120V60Z" fill="black"/>
<path d="M120 63.158H116.842V66.3159H120V63.158Z" fill="black"/>
<path d="M116.842 66.3159H113.685V69.4738H116.842V66.3159Z" fill="black"/>
<path d="M113.684 69.4736H110.526V72.6315H113.684V69.4736Z" fill="black"/>
<path d="M110.526 72.6316H107.368V75.7895H110.526V72.6316Z" fill="black"/>
<path d="M113.684 75.7896H110.526V78.9475H113.684V75.7896Z" fill="black"/>
<path d="M116.842 78.9475H113.685V82.1054H116.842V78.9475Z" fill="black"/>
<path d="M116.842 82.1052H113.685V85.2631H116.842V82.1052Z" fill="black"/>
<path d="M116.842 85.2632H113.685V88.4211H116.842V85.2632Z" fill="black"/>
<path d="M116.842 88.4211H113.685V91.579H116.842V88.4211Z" fill="black"/>
<path d="M113.684 91.5789H110.526V94.7368H113.684V91.5789Z" fill="black"/>
<path d="M110.526 94.7368H107.368V97.8947H110.526V94.7368Z" fill="black"/>
<path d="M107.368 97.8948H104.21V101.053H107.368V97.8948Z" fill="black"/>
<path d="M104.211 97.8948H101.053V101.053H104.211V97.8948Z" fill="black"/>
<path d="M101.053 97.8948H97.895V101.053H101.053V97.8948Z" fill="black"/>
<path d="M97.8952 97.8948H94.7373V101.053H97.8952V97.8948Z" fill="black"/>
<path d="M94.7375 97.8948H91.5796V101.053H94.7375V97.8948Z" fill="black"/>
<path d="M91.5798 94.7368H88.4219V97.8947H91.5798V94.7368Z" fill="black"/>
<path d="M88.4211 97.8948H85.2632V101.053H88.4211V97.8948Z" fill="black"/>
<path d="M88.4211 101.052H85.2632V104.21H88.4211V101.052Z" fill="black"/>
<path d="M85.2624 104.211H82.1045V107.369H85.2624V104.211Z" fill="black"/>
<path d="M82.1057 107.368H78.9478V110.526H82.1057V107.368Z" fill="black"/>
<path d="M78.947 107.368H75.7891V110.526H78.947V107.368Z" fill="black"/>
<path d="M75.7892 107.368H72.6313V110.526H75.7892V107.368Z" fill="black"/>
<path d="M72.6315 107.368H69.4736V110.526H72.6315V107.368Z" fill="black"/>
<path d="M69.4728 107.368H66.3149V110.526H69.4728V107.368Z" fill="black"/>
<path d="M66.3161 104.211H63.1582V107.369H66.3161V104.211Z" fill="black"/>
<path d="M63.1584 101.052H60.0005V104.21H63.1584V101.052Z" fill="black"/>
<path d="M59.9997 97.8948H56.8418V101.053H59.9997V97.8948Z" fill="black"/>
<path d="M56.843 97.8948H53.6851V101.053H56.843V97.8948Z" fill="black"/>
<path d="M53.6843 101.052H50.5264V104.21H53.6843V101.052Z" fill="black"/>
<path d="M50.5266 101.052H47.3687V104.21H50.5266V101.052Z" fill="black"/>
<path d="M47.3688 104.211H44.2109V107.369H47.3688V104.211Z" fill="black"/>
<path d="M44.2111 104.211H41.0532V107.369H44.2111V104.211Z" fill="black"/>
<path d="M41.0534 104.211H37.8955V107.369H41.0534V104.211Z" fill="black"/>
<path d="M37.8947 104.211H34.7368V107.369H37.8947V104.211Z" fill="black"/>
<path d="M34.737 101.052H31.5791V104.21H34.737V101.052Z" fill="black"/>
<path d="M31.5793 101.052H28.4214V104.21H31.5793V101.052Z" fill="black"/>
<path d="M28.4206 97.8948H25.2627V101.053H28.4206V97.8948Z" fill="black"/>
<path d="M28.4206 94.7368H25.2627V97.8947H28.4206V94.7368Z" fill="black"/>
<path d="M25.2619 91.5789H22.104V94.7368H25.2619V91.5789Z" fill="black"/>
<path d="M22.1052 91.5789H18.9473V94.7368H22.1052V91.5789Z" fill="black"/>
<path d="M18.9475 91.5789H15.7896V94.7368H18.9475V91.5789Z" fill="black"/>
<path d="M15.7897 91.5789H12.6318V94.7368H15.7897V91.5789Z" fill="black"/>
<path d="M12.632 91.5789H9.47412V94.7368H12.632V91.5789Z" fill="black"/>
<path d="M9.47333 88.4211H6.31543V91.579H9.47333V88.4211Z" fill="black"/>
<path d="M6.31561 85.2632H3.15771V88.4211H6.31561V85.2632Z" fill="black"/>
<path d="M6.31561 82.1052H3.15771V85.2631H6.31561V82.1052Z" fill="black"/>
<path d="M6.31561 78.9475H3.15771V82.1054H6.31561V78.9475Z" fill="black"/>
<path d="M6.31561 75.7896H3.15771V78.9475H6.31561V75.7896Z" fill="black"/>
<path d="M6.31561 72.6316H3.15771V75.7895H6.31561V72.6316Z" fill="black"/>
<path d="M9.47333 69.4736H6.31543V72.6315H9.47333V69.4736Z" fill="black"/>
<path d="M12.632 66.3159H9.47412V69.4738H12.632V66.3159Z" fill="black"/>
<path d="M15.7897 66.3159H12.6318V69.4738H15.7897V66.3159Z" fill="black"/>
<path d="M18.9475 63.158H15.7896V66.3159H18.9475V63.158Z" fill="black"/>
<path d="M22.1052 63.158H18.9473V66.3159H22.1052V63.158Z" fill="black"/>
<path d="M44.2111 47.3684H41.0532V50.5263H44.2111V47.3684Z" fill="black"/>
<path d="M44.2111 44.2104H41.0532V47.3683H44.2111V44.2104Z" fill="black"/>
<path d="M47.3688 41.0525H44.2109V44.2104H47.3688V41.0525Z" fill="black"/>
<path d="M50.5266 41.0525H47.3687V44.2104H50.5266V41.0525Z" fill="black"/>
<path d="M53.6843 41.0525H50.5264V44.2104H53.6843V41.0525Z" fill="black"/>
<path d="M56.843 44.2104H53.6851V47.3683H56.843V44.2104Z" fill="black"/>
<path d="M56.843 47.3684H53.6851V50.5263H56.843V47.3684Z" fill="black"/>
<path d="M59.9997 50.5261H56.8418V53.684H59.9997V50.5261Z" fill="black"/>
<path d="M59.9997 53.6843H56.8418V56.8422H59.9997V53.6843Z" fill="black"/>
<path d="M59.9997 56.842H56.8418V59.9999H59.9997V56.842Z" fill="black"/>
<path d="M59.9997 60H56.8418V63.1579H59.9997V60Z" fill="black"/>
<path d="M56.843 63.158H53.6851V66.3159H56.843V63.158Z" fill="black"/>
<path d="M56.843 60H53.6851V63.1579H56.843V60Z" fill="black"/>
<path d="M56.843 56.842H53.6851V59.9999H56.843V56.842Z" fill="black"/>
<path d="M56.843 53.6843H53.6851V56.8422H56.843V53.6843Z" fill="black"/>
<path d="M53.6843 53.6843H50.5264V56.8422H53.6843V53.6843Z" fill="black"/>
<path d="M50.5266 56.842H47.3687V59.9999H50.5266V56.842Z" fill="black"/>
<path d="M50.5266 60H47.3687V63.1579H50.5266V60Z" fill="black"/>
<path d="M50.5266 63.158H47.3687V66.3159H50.5266V63.158Z" fill="black"/>
<path d="M50.5266 66.3159H47.3687V69.4738H50.5266V66.3159Z" fill="black"/>
<path d="M53.6843 66.3159H50.5264V69.4738H53.6843V66.3159Z" fill="black"/>
<path d="M53.6843 63.158H50.5264V66.3159H53.6843V63.158Z" fill="black"/>
<path d="M53.6843 60H50.5264V63.1579H53.6843V60Z" fill="black"/>
<path d="M53.6843 56.842H50.5264V59.9999H53.6843V56.842Z" fill="black"/>
<path d="M56.843 66.3159H53.6851V69.4738H56.843V66.3159Z" fill="black"/>
<path d="M53.6843 69.4736H50.5264V72.6315H53.6843V69.4736Z" fill="black"/>
<path d="M50.5266 69.4736H47.3687V72.6315H50.5266V69.4736Z" fill="black"/>
<path d="M47.3688 69.4736H44.2109V72.6315H47.3688V69.4736Z" fill="black"/>
<path d="M44.2111 66.3159H41.0532V69.4738H44.2111V66.3159Z" fill="black"/>
<path d="M44.2111 63.158H41.0532V66.3159H44.2111V63.158Z" fill="black"/>
<path d="M41.0534 60H37.8955V63.1579H41.0534V60Z" fill="black"/>
<path d="M41.0534 56.842H37.8955V59.9999H41.0534V56.842Z" fill="black"/>
<path d="M41.0534 53.6843H37.8955V56.8422H41.0534V53.6843Z" fill="black"/>
<path d="M41.0534 50.5261H37.8955V53.684H41.0534V50.5261Z" fill="black"/>
<path d="M69.4728 47.3684H66.3149V50.5263H69.4728V47.3684Z" fill="black"/>
<path d="M69.4728 44.2104H66.3149V47.3683H69.4728V44.2104Z" fill="black"/>
<path d="M72.6315 41.0525H69.4736V44.2104H72.6315V41.0525Z" fill="black"/>
<path d="M75.7892 41.0525H72.6313V44.2104H75.7892V41.0525Z" fill="black"/>
<path d="M78.947 41.0525H75.7891V44.2104H78.947V41.0525Z" fill="black"/>
<path d="M82.1057 44.2104H78.9478V47.3683H82.1057V44.2104Z" fill="black"/>
<path d="M82.1057 47.3684H78.9478V50.5263H82.1057V47.3684Z" fill="black"/>
<path d="M85.2624 50.5261H82.1045V53.684H85.2624V50.5261Z" fill="black"/>
<path d="M85.2624 53.6843H82.1045V56.8422H85.2624V53.6843Z" fill="black"/>
<path d="M85.2624 56.842H82.1045V59.9999H85.2624V56.842Z" fill="black"/>
<path d="M85.2624 60H82.1045V63.1579H85.2624V60Z" fill="black"/>
<path d="M82.1057 63.158H78.9478V66.3159H82.1057V63.158Z" fill="black"/>
<path d="M82.1057 60H78.9478V63.1579H82.1057V60Z" fill="black"/>
<path d="M82.1057 56.842H78.9478V59.9999H82.1057V56.842Z" fill="black"/>
<path d="M82.1057 53.6843H78.9478V56.8422H82.1057V53.6843Z" fill="black"/>
<path d="M78.947 53.6843H75.7891V56.8422H78.947V53.6843Z" fill="black"/>
<path d="M75.7892 56.842H72.6313V59.9999H75.7892V56.842Z" fill="black"/>
<path d="M75.7892 60H72.6313V63.1579H75.7892V60Z" fill="black"/>
<path d="M75.7892 63.158H72.6313V66.3159H75.7892V63.158Z" fill="black"/>
<path d="M75.7892 66.3159H72.6313V69.4738H75.7892V66.3159Z" fill="black"/>
<path d="M78.947 66.3159H75.7891V69.4738H78.947V66.3159Z" fill="black"/>
<path d="M78.947 63.158H75.7891V66.3159H78.947V63.158Z" fill="black"/>
<path d="M78.947 60H75.7891V63.1579H78.947V60Z" fill="black"/>
<path d="M78.947 56.842H75.7891V59.9999H78.947V56.842Z" fill="black"/>
<path d="M82.1057 66.3159H78.9478V69.4738H82.1057V66.3159Z" fill="black"/>
<path d="M78.947 69.4736H75.7891V72.6315H78.947V69.4736Z" fill="black"/>
<path d="M75.7892 69.4736H72.6313V72.6315H75.7892V69.4736Z" fill="black"/>
<path d="M72.6315 69.4736H69.4736V72.6315H72.6315V69.4736Z" fill="black"/>
<path d="M69.4728 66.3159H66.3149V69.4738H69.4728V66.3159Z" fill="black"/>
<path d="M69.4728 63.158H66.3149V66.3159H69.4728V63.158Z" fill="black"/>
<path d="M66.3161 60H63.1582V63.1579H66.3161V60Z" fill="black"/>
<path d="M66.3161 56.842H63.1582V59.9999H66.3161V56.842Z" fill="black"/>
<path d="M66.3161 53.6843H63.1582V56.8422H66.3161V53.6843Z" fill="black"/>
<path d="M66.3161 50.5261H63.1582V53.684H66.3161V50.5261Z" fill="black"/>
<path d="M18.9475 60H15.7896V63.1579H18.9475V60Z" fill="black"/>
<path d="M15.7897 60H12.6318V63.1579H15.7897V60Z" fill="black"/>
<path d="M9.47333 53.6843H6.31543V56.8422H9.47333V53.6843Z" fill="black"/>
<path d="M12.632 56.842H9.47412V59.9999H12.632V56.842Z" fill="black"/>
<path d="M6.31561 50.5261H3.15771V53.684H6.31561V50.5261Z" fill="black"/>
<path d="M6.31561 47.3684H3.15771V50.5263H6.31561V47.3684Z" fill="black"/>
<path d="M3.1579 44.2104H0V47.3683H3.1579V44.2104Z" fill="black"/>
<path d="M3.1579 41.0525H0V44.2104H3.1579V41.0525Z" fill="black"/>
<path d="M3.1579 37.8948H0V41.0527H3.1579V37.8948Z" fill="black"/>
<path d="M3.1579 34.7368H0V37.8947H3.1579V34.7368Z" fill="black"/>
<path d="M3.1579 31.5789H0V34.7368H3.1579V31.5789Z" fill="black"/>
<path d="M37.8947 3.15771H34.7368V6.31561H37.8947V3.15771Z" fill="black"/>
<path d="M28.4206 22.1052H25.2627V25.2631H28.4206V22.1052Z" fill="black"/>
<path d="M25.2619 18.9473H22.104V22.1052H25.2619V18.9473Z" fill="black"/>
<path d="M22.1052 18.9473H18.9473V22.1052H22.1052V18.9473Z" fill="black"/>
<path d="M18.9475 18.9473H15.7896V22.1052H18.9475V18.9473Z" fill="black"/>
<path d="M15.7897 18.9473H12.6318V22.1052H15.7897V18.9473Z" fill="black"/>
<path d="M12.632 22.1052H9.47412V25.2631H12.632V22.1052Z" fill="black"/>
<path d="M9.47333 25.2632H6.31543V28.4211H9.47333V25.2632Z" fill="black"/>
<path d="M6.31561 28.4209H3.15771V31.5788H6.31561V28.4209Z" fill="black"/>
</svg>
