<svg xmlns="http://www.w3.org/2000/svg" width="110" height="112" fill="none" viewBox="0 0 110 112"><path fill="#00ced4" d="M90.87 62.967h14.349V48.436H90.871v-9.687h-4.783v-4.844h4.783v-4.843h4.783v-4.844H90.87v-4.843h-4.783V14.53h-4.782v4.844h-4.783v4.843H71.74v-4.843h-9.565V4.844H47.827v14.53h-9.565v4.844H33.48v-4.843h-4.782V14.53h-4.783v4.844h-4.782v4.843H14.35v4.844h4.783v4.843h4.782v4.844h-4.782v9.687H4.784v14.53h14.348v9.688h4.782v4.843h-4.782v4.844h-4.783v4.843h4.783v4.844h4.782v4.843h4.783v-4.843h4.782v-4.844h4.783v4.844h9.565v14.531h14.348v-14.53h9.565v-4.844h4.783v4.844h4.783v4.843h4.782v-4.843h4.783v-4.844h4.783v-4.843H90.87v-4.844h-4.783v-4.843h4.783zm-19.13-9.688v9.688h-4.782v4.843h-4.783v4.844H47.827V67.81h-4.782v-4.843h-4.783V48.436h4.783v-4.844h4.782V38.75h14.348v4.843h4.783v4.844h4.782z"/><path fill="#000" d="M57.393 0H52.61v4.844h4.782z"/><path fill="#000" d="M62.174 0H57.39v4.844h4.783z"/><path fill="#000" d="M66.957 0h-4.783v4.844h4.783zm0 4.844h-4.783v4.843h4.783z"/><path fill="#000" d="M66.957 9.687h-4.783v4.844h4.783zm0 4.844h-4.783v4.844h4.783zm4.783 0h-4.783v4.844h4.782zm4.782 4.844H71.74v4.843h4.782zm4.784-4.844h-4.783v4.844h4.783zm4.782-4.844h-4.783v4.844h4.783zm4.782 4.844h-4.783v4.844h4.783zm4.782 4.844H90.87v4.843h4.782zm4.783 4.843h-4.782v4.844h4.782zm-4.783 4.844H90.87v4.843h4.782zm-4.782 4.843h-4.783v4.844h4.783zm4.782 4.844H90.87v4.843h4.782zm0 4.843H90.87v4.844h4.782zm4.783 0h-4.782v4.844h4.782zm4.783 0h-4.783v4.844h4.783zm4.783 0h-4.783v4.844h4.783zm0 4.844h-4.783v4.843h4.783zm0 4.844h-4.783v4.843h4.783zM52.609 4.844h4.782V0H52.61zm-4.783 0h4.783V0h-4.783z"/><path fill="#000" d="M43.044 4.844h4.783V0h-4.783zm0 4.843h4.783V4.844h-4.783zm0 4.844h4.783V9.687h-4.783z"/><path fill="#000" d="M43.044 19.374h4.783v-4.843h-4.783z"/><path fill="#000" d="M38.262 19.374h4.783v-4.843h-4.783zm-4.783 4.844h4.782v-4.843H33.48zm-4.783-4.844h4.783v-4.843h-4.783z"/><path fill="#000" d="M23.913 14.531h4.783V9.687h-4.783z"/><path fill="#000" d="M19.13 19.374h4.784v-4.843H19.13zm-4.782 4.844h4.783v-4.843h-4.783zm-4.782 4.843h4.782v-4.843H9.566zm4.782 4.844h4.783v-4.844h-4.783zm4.782 4.844h4.784v-4.844H19.13z"/><path fill="#000" d="M14.348 43.592h4.783v-4.843h-4.783zm0 4.844h4.783v-4.844h-4.783z"/><path fill="#000" d="M9.566 48.436h4.782v-4.844H9.566zm-4.784 0h4.783v-4.844H4.782z"/><path fill="#000" d="M0 48.436h4.783v-4.844H0zm0 4.844h4.783v-4.844H0z"/><path fill="#000" d="M0 58.123h4.783v-4.844H0zm52.609 53.279h4.782v-4.843H52.61zm-4.783 0h4.783v-4.843h-4.783z"/><path fill="#000" d="M43.044 111.402h4.783v-4.843h-4.783zm0-4.843h4.783v-4.844h-4.783zm0-4.844h4.783v-4.844h-4.783z"/><path fill="#000" d="M43.044 96.872h4.783v-4.844h-4.783z"/><path fill="#000" d="M38.262 96.872h4.783v-4.844h-4.783zm-4.783-4.844h4.782v-4.844H33.48zm-4.783 4.844h4.783v-4.844h-4.783z"/><path fill="#000" d="M23.913 101.715h4.783v-4.844h-4.783z"/><path fill="#000" d="M19.13 96.872h4.784v-4.844H19.13zm-4.782-4.844h4.783v-4.844h-4.783zm-4.782-4.844h4.782v-4.843H9.566zm4.782-4.843h4.783v-4.843h-4.783zm4.782-4.844h4.784v-4.843H19.13zm-4.782-4.843h4.783V67.81h-4.783zm0-4.844h4.783v-4.843h-4.783z"/><path fill="#000" d="M9.566 67.81h4.782v-4.843H9.566zm-4.784 0h4.783v-4.843H4.782z"/><path fill="#000" d="M0 67.81h4.783v-4.843H0zm0-4.843h4.783v-4.844H0zm0-4.844h4.783V53.28H0zm57.393 48.436H52.61v4.843h4.782z"/><path fill="#000" d="M62.174 106.559H57.39v4.843h4.783z"/><path fill="#000" d="M66.957 106.559h-4.783v4.843h4.783zm0-4.844h-4.783v4.844h4.783zm0-4.843h-4.783v4.843h4.783zm0-4.844h-4.783v4.844h4.783zm4.783 0h-4.783v4.844h4.782zm4.782-4.843H71.74v4.843h4.782zm4.784 4.843h-4.783v4.844h4.783zm4.782 4.844h-4.783v4.843h4.783zm4.782-4.844h-4.783v4.844h4.783zm4.782-4.843H90.87v4.843h4.782zm4.783-4.844h-4.782v4.844h4.782zm-4.783-4.843H90.87v4.843h4.782zm-4.782-4.844h-4.783v4.843h4.783zm4.782-4.844H90.87v4.844h4.782zm0-4.843H90.87v4.843h4.782zm4.783 0h-4.782v4.843h4.782zm4.783 0h-4.783v4.843h4.783zm4.783 0h-4.783v4.843h4.783zm0-4.844h-4.783v4.844h4.783zm0-4.843h-4.783v4.843h4.783zM57.393 38.749H52.61v4.843h4.782z"/><path fill="#000" d="M62.174 38.749H57.39v4.843h4.783zm4.783 4.843h-4.783v4.844h4.783zm4.783 4.844h-4.783v4.843h4.782zm0 4.844h-4.783v4.843h4.782z"/><path fill="#000" d="M71.74 58.123h-4.783v4.844h4.782zm-4.783 4.844h-4.783v4.843h4.783zm-4.783 4.843H57.39v4.844h4.783z"/><path fill="#000" d="M57.393 67.81H52.61v4.844h4.782zm-4.783 0h-4.783v4.844h4.782zm-4.783-4.843h-4.783v4.843h4.783zm-4.783-4.844H38.26v4.844h4.783z"/><path fill="#000" d="M43.044 53.28H38.26v4.843h4.783zm0-4.844H38.26v4.843h4.783zm4.783-4.844h-4.783v4.844h4.783zm4.783-4.843h-4.783v4.843h4.782z"/></svg>