<svg xmlns="http://www.w3.org/2000/svg" width="62" height="62" fill="none" viewBox="0 0 62 62"><path fill="#000" d="M13.2 8.828H8.8v4.413h4.4zm-4.4 4.413H4.4v4.414h4.4zm-4.4 4.414H0v4.414h4.4z"/><path fill="#000" d="M4.4 22.069H0v4.414h4.4zm0 4.414H0v4.414h4.4zM17.6 4.414h-4.4v4.413h4.4zM22 0h-4.4v4.414H22zm4.4 0H22v4.414h4.4zm4.4 0h-4.4v4.414h4.4zm17.6 13.241h4.4V8.827h-4.4zm4.4 4.414h4.4v-4.414h-4.4zm4.4 4.414h4.4v-4.414h-4.4zm0 4.414h4.4v-4.414h-4.4z"/><path fill="#000" d="M57.2 30.897h4.4v-4.414h-4.4zM44 8.828h4.4V4.414H44zm-4.4-4.414H44V0h-4.4zm-4.4 0h4.4V0h-4.4zm-4.4 0h4.4V0h-4.4zm17.6 48.551h4.4v-4.414h-4.4zm4.4-4.413h4.4v-4.414h-4.4zm4.4-4.414h4.4v-4.414h-4.4zm0-4.414h4.4V35.31h-4.4z"/><path fill="#000" d="M57.2 35.31h4.4v-4.414h-4.4zM44 57.38h4.4v-4.414H44zm-4.4 4.413H44v-4.414h-4.4zm-4.4 0h4.4v-4.414h-4.4zm-4.4 0h4.4v-4.414h-4.4zM13.2 48.552H8.8v4.414h4.4zm-4.4-4.414H4.4v4.413h4.4zm-4.4-4.414H0v4.414h4.4z"/><path fill="#000" d="M4.4 35.31H0v4.414h4.4zm0-4.413H0v4.413h4.4zm13.2 22.068h-4.4v4.414h4.4zM22 57.38h-4.4v4.413H22zm4.4 0H22v4.413h4.4zm4.4 0h-4.4v4.413h4.4z"/><path fill="#00ced4" d="M57.2 17.646v26.492h-4.41v4.422H48.4v4.405h-4.41v4.423H17.6v-4.423h-4.41V48.56H8.8v-4.422H4.39V17.646H8.8v-4.405h4.391V8.82H17.6V4.414h26.39v4.405h4.41v4.422h4.391v4.405z"/></svg>