<svg width="374" height="128" viewBox="0 0 374 128" fill="none" xmlns="http://www.w3.org/2000/svg">
<g clip-path="url(#clip0_1840_67723)">
<path d="M171.6 35.3101V39.7239H167.2H162.8H158.4V44.1376H154H149.6H145.2V48.5514H140.8H136.4V52.9652H140.8H145.2H149.6V57.379H154H158.4H162.8V61.7928H167.2H171.6H176V66.2066H180.4V61.7928V57.379V52.9652V48.5514V44.1376V39.7239V35.3101H176H171.6Z" fill="white"/>
<path d="M154 61.7929H149.6V57.3791H145.2H140.8H136.4V52.9653H132H127.6V57.3791H123.2H118.8V61.7929H114.4H110V66.2067H114.4V70.6205H118.8H123.2V75.0343H127.6H132H136.4V79.4481H140.8H145.2H149.6V83.8619H154H158.4V79.4481H162.8V75.0343H167.2V70.6205H171.6H176V66.2067H171.6H167.2H162.8V61.7929H158.4H154Z" fill="white"/>
<path d="M162.8 79.448V83.8618H158.4V88.2756H154H149.6V83.8618H145.2H140.8H136.4V79.448H132V83.8618V88.2756V92.6894V97.1031V101.517V105.931V110.345H136.4H140.8H145.2V114.758H149.6H154H158.4V119.172H162.8H167.2V123.586H171.6H176V119.172V114.758V110.345V105.931V101.517V97.1031V92.6894V88.2756V83.8618V79.448V75.0342H171.6H167.2V79.448H162.8Z" fill="white"/>
<path d="M140.8 44.1375H145.2V39.7238H149.6H154H158.4V35.31H162.8H167.2H171.6V30.8962V26.4824H167.2H162.8V22.0686H158.4V17.6548H154V22.0686H149.6H145.2V26.4824H140.8H136.4H132V30.8962H127.6H123.2V35.31H118.8H114.4V39.7238H118.8V44.1375H123.2H127.6V48.5513H132H136.4V44.1375H140.8Z" fill="white"/>
<path d="M198 57.379H202.4H206.8V52.9652H211.2H215.6H220V48.5514H215.6H211.2V44.1376H206.8H202.4H198V39.7239H193.6H189.2H184.8V35.3101H180.4V39.7239V44.1376V48.5514V52.9652V57.379V61.7928H184.8H189.2H193.6V57.379H198Z" fill="white"/>
<path d="M242 61.7929H237.6V57.3791H233.2H228.8V52.9653H224.4H220V57.3791H215.6H211.2H206.8V61.7929H202.4H198H193.6V66.2067H189.2H184.8H180.4V70.6205H184.8H189.2V75.0343H193.6V79.4481H198V83.8619H202.4H206.8V79.4481H211.2H215.6H220V75.0343H224.4H228.8H233.2V70.6205H237.6H242V66.2067H246.4V61.7929H242Z" fill="white"/>
<path d="M215.6 83.8618H211.2H206.8V88.2756H202.4H198V83.8618H193.6V79.448H189.2V75.0342H184.8H180.4V79.448V83.8618V88.2756V92.6894V97.1031V101.517V105.931V110.345V114.758V119.172V123.586H184.8H189.2V119.172H193.6H198V114.758H202.4H206.8H211.2V110.345H215.6H220H224.4V105.931V101.517V97.1031V92.6894V88.2756V83.8618V79.448H220V83.8618H215.6Z" fill="white"/>
<path d="M193.6 35.31H198V39.7238H202.4H206.8H211.2V44.1375H215.6H220V48.5513H224.4H228.8V44.1375H233.2H237.6V39.7238H242V35.31H237.6H233.2V30.8962H228.8H224.4V26.4824H220H215.6H211.2V22.0686H206.8H202.4V17.6548H198V22.0686H193.6V26.4824H189.2H184.8V30.8962V35.31H189.2H193.6Z" fill="white"/>
<path d="M180.4 66.2065H176V70.6203H180.4V66.2065Z" fill="black"/>
<path d="M180.4 70.6206H176V75.0344H180.4V70.6206Z" fill="black"/>
<path d="M180.4 75.0342H176V79.448H180.4V75.0342Z" fill="black"/>
<path d="M180.4 79.4482H176V83.862H180.4V79.4482Z" fill="black"/>
<path d="M180.4 83.8618H176V88.2756H180.4V83.8618Z" fill="black"/>
<path d="M180.4 88.2759H176V92.6897H180.4V88.2759Z" fill="black"/>
<path d="M180.4 92.6895H176V97.1032H180.4V92.6895Z" fill="black"/>
<path d="M180.4 97.1035H176V101.517H180.4V97.1035Z" fill="black"/>
<path d="M180.4 101.517H176V105.931H180.4V101.517Z" fill="black"/>
<path d="M180.4 105.931H176V110.344H180.4V105.931Z" fill="black"/>
<path d="M180.4 110.345H176V114.759H180.4V110.345Z" fill="black"/>
<path d="M180.4 114.758H176V119.172H180.4V114.758Z" fill="black"/>
<path d="M180.4 119.172H176V123.586H180.4V119.172Z" fill="black"/>
<path d="M180.4 123.586H176V128H180.4V123.586Z" fill="black"/>
<path d="M184.8 123.586H180.4V128H184.8V123.586Z" fill="black"/>
<path d="M189.2 123.586H184.8V128H189.2V123.586Z" fill="black"/>
<path d="M193.6 119.172H189.2V123.586H193.6V119.172Z" fill="black"/>
<path d="M198 119.172H193.6V123.586H198V119.172Z" fill="black"/>
<path d="M202.4 114.758H198V119.172H202.4V114.758Z" fill="black"/>
<path d="M206.8 114.758H202.4V119.172H206.8V114.758Z" fill="black"/>
<path d="M211.2 114.758H206.8V119.172H211.2V114.758Z" fill="black"/>
<path d="M215.6 110.345H211.2V114.759H215.6V110.345Z" fill="black"/>
<path d="M220 110.345H215.6V114.759H220V110.345Z" fill="black"/>
<path d="M224.4 110.345H220V114.759H224.4V110.345Z" fill="black"/>
<path d="M228.8 105.931H224.4V110.344H228.8V105.931Z" fill="black"/>
<path d="M228.8 101.517H224.4V105.931H228.8V101.517Z" fill="black"/>
<path d="M228.8 97.1035H224.4V101.517H228.8V97.1035Z" fill="black"/>
<path d="M228.8 92.6895H224.4V97.1032H228.8V92.6895Z" fill="black"/>
<path d="M228.8 88.2759H224.4V92.6897H228.8V88.2759Z" fill="black"/>
<path d="M228.8 83.8618H224.4V88.2756H228.8V83.8618Z" fill="black"/>
<path d="M228.8 79.4482H224.4V83.862H228.8V79.4482Z" fill="black"/>
<path d="M228.8 75.0342H224.4V79.448H228.8V75.0342Z" fill="black"/>
<path d="M184.8 70.6206H180.4V75.0344H184.8V70.6206Z" fill="black"/>
<path d="M189.2 70.6206H184.8V75.0344H189.2V70.6206Z" fill="black"/>
<path d="M193.6 75.0342H189.2V79.448H193.6V75.0342Z" fill="black"/>
<path d="M198 79.4482H193.6V83.862H198V79.4482Z" fill="black"/>
<path d="M202.4 83.8618H198V88.2756H202.4V83.8618Z" fill="black"/>
<path d="M206.8 83.8618H202.4V88.2756H206.8V83.8618Z" fill="black"/>
<path d="M211.2 79.4482H206.8V83.862H211.2V79.4482Z" fill="black"/>
<path d="M215.6 79.4482H211.2V83.862H215.6V79.4482Z" fill="black"/>
<path d="M220 79.4482H215.6V83.862H220V79.4482Z" fill="black"/>
<path d="M224.4 75.0342H220V79.448H224.4V75.0342Z" fill="black"/>
<path d="M233.2 75.0342H228.8V79.448H233.2V75.0342Z" fill="black"/>
<path d="M237.6 70.6206H233.2V75.0344H237.6V70.6206Z" fill="black"/>
<path d="M242 70.6206H237.6V75.0344H242V70.6206Z" fill="black"/>
<path d="M246.4 66.2065H242V70.6203H246.4V66.2065Z" fill="black"/>
<path d="M250.8 66.2065H246.4V70.6203H250.8V66.2065Z" fill="black"/>
<path d="M255.2 66.2065H250.8V70.6203H255.2V66.2065Z" fill="black"/>
<path d="M250.8 61.793H246.4V66.2068H250.8V61.793Z" fill="black"/>
<path d="M246.4 57.3789H242V61.7927H246.4V57.3789Z" fill="black"/>
<path d="M242 57.3789H237.6V61.7927H242V57.3789Z" fill="black"/>
<path d="M237.6 52.9653H233.2V57.3791H237.6V52.9653Z" fill="black"/>
<path d="M233.2 52.9653H228.8V57.3791H233.2V52.9653Z" fill="black"/>
<path d="M228.8 48.5518H224.4V52.9656H228.8V48.5518Z" fill="black"/>
<path d="M233.2 44.1377H228.8V48.5515H233.2V44.1377Z" fill="black"/>
<path d="M237.6 44.1377H233.2V48.5515H237.6V44.1377Z" fill="black"/>
<path d="M242 39.7241H237.6V44.1379H242V39.7241Z" fill="black"/>
<path d="M246.4 35.3101H242V39.7239H246.4V35.3101Z" fill="black"/>
<path d="M250.8 35.3101H246.4V39.7239H250.8V35.3101Z" fill="black"/>
<path d="M246.4 30.8965H242V35.3103H246.4V30.8965Z" fill="black"/>
<path d="M242 30.8965H237.6V35.3103H242V30.8965Z" fill="black"/>
<path d="M237.6 30.8965H233.2V35.3103H237.6V30.8965Z" fill="black"/>
<path d="M233.2 26.4824H228.8V30.8962H233.2V26.4824Z" fill="black"/>
<path d="M228.8 26.4824H224.4V30.8962H228.8V26.4824Z" fill="black"/>
<path d="M224.4 22.0688H220V26.4826H224.4V22.0688Z" fill="black"/>
<path d="M220 22.0688H215.6V26.4826H220V22.0688Z" fill="black"/>
<path d="M215.6 22.0688H211.2V26.4826H215.6V22.0688Z" fill="black"/>
<path d="M211.2 17.6548H206.8V22.0686H211.2V17.6548Z" fill="black"/>
<path d="M206.8 17.6548H202.4V22.0686H206.8V17.6548Z" fill="black"/>
<path d="M202.4 13.2412H198V17.655H202.4V13.2412Z" fill="black"/>
<path d="M198 17.6548H193.6V22.0686H198V17.6548Z" fill="black"/>
<path d="M193.6 22.0688H189.2V26.4826H193.6V22.0688Z" fill="black"/>
<path d="M189.2 22.0688H184.8V26.4826H189.2V22.0688Z" fill="black"/>
<path d="M184.8 26.4824H180.4V30.8962H184.8V26.4824Z" fill="black"/>
<path d="M180.4 30.8965H176V35.3103H180.4V30.8965Z" fill="black"/>
<path d="M184.8 30.8965H180.4V35.3103H184.8V30.8965Z" fill="black"/>
<path d="M189.2 35.3101H184.8V39.7239H189.2V35.3101Z" fill="black"/>
<path d="M193.6 35.3101H189.2V39.7239H193.6V35.3101Z" fill="black"/>
<path d="M198 35.3101H193.6V39.7239H198V35.3101Z" fill="black"/>
<path d="M202.4 39.7241H198V44.1379H202.4V39.7241Z" fill="black"/>
<path d="M206.8 39.7241H202.4V44.1379H206.8V39.7241Z" fill="black"/>
<path d="M211.2 39.7241H206.8V44.1379H211.2V39.7241Z" fill="black"/>
<path d="M215.6 44.1377H211.2V48.5515H215.6V44.1377Z" fill="black"/>
<path d="M220 44.1377H215.6V48.5515H220V44.1377Z" fill="black"/>
<path d="M224.4 48.5518H220V52.9656H224.4V48.5518Z" fill="black"/>
<path d="M220 52.9653H215.6V57.3791H220V52.9653Z" fill="black"/>
<path d="M215.6 52.9653H211.2V57.3791H215.6V52.9653Z" fill="black"/>
<path d="M211.2 52.9653H206.8V57.3791H211.2V52.9653Z" fill="black"/>
<path d="M206.8 57.3789H202.4V61.7927H206.8V57.3789Z" fill="black"/>
<path d="M202.4 57.3789H198V61.7927H202.4V57.3789Z" fill="black"/>
<path d="M198 57.3789H193.6V61.7927H198V57.3789Z" fill="black"/>
<path d="M193.6 61.793H189.2V66.2068H193.6V61.793Z" fill="black"/>
<path d="M189.2 61.793H184.8V66.2068H189.2V61.793Z" fill="black"/>
<path d="M184.8 61.793H180.4V66.2068H184.8V61.793Z" fill="black"/>
<path d="M176 70.6206H180.4V66.2068H176V70.6206Z" fill="black"/>
<path d="M176 75.0342H180.4V70.6204H176V75.0342Z" fill="black"/>
<path d="M176 79.4482H180.4V75.0344H176V79.4482Z" fill="black"/>
<path d="M176 83.8618H180.4V79.448H176V83.8618Z" fill="black"/>
<path d="M176 88.2759H180.4V83.8621H176V88.2759Z" fill="black"/>
<path d="M176 92.6895H180.4V88.2757H176V92.6895Z" fill="black"/>
<path d="M176 97.1035H180.4V92.6897H176V97.1035Z" fill="black"/>
<path d="M176 101.517H180.4V97.1033H176V101.517Z" fill="black"/>
<path d="M176 105.931H180.4V101.517H176V105.931Z" fill="black"/>
<path d="M176 110.345H180.4V105.931H176V110.345Z" fill="black"/>
<path d="M176 114.758H180.4V110.345H176V114.758Z" fill="black"/>
<path d="M176 119.172H180.4V114.759H176V119.172Z" fill="black"/>
<path d="M176 123.586H180.4V119.172H176V123.586Z" fill="black"/>
<path d="M176 128H180.4V123.586H176V128Z" fill="black"/>
<path d="M171.6 128H176V123.586H171.6V128Z" fill="black"/>
<path d="M167.2 128H171.6V123.586H167.2V128Z" fill="black"/>
<path d="M162.8 123.586H167.2V119.172H162.8V123.586Z" fill="black"/>
<path d="M158.4 123.586H162.8V119.172H158.4V123.586Z" fill="black"/>
<path d="M154 119.172H158.4V114.759H154V119.172Z" fill="black"/>
<path d="M149.6 119.172H154V114.759H149.6V119.172Z" fill="black"/>
<path d="M145.2 119.172H149.6V114.759H145.2V119.172Z" fill="black"/>
<path d="M140.8 114.758H145.2V110.345H140.8V114.758Z" fill="black"/>
<path d="M136.4 114.758H140.8V110.345H136.4V114.758Z" fill="black"/>
<path d="M132 114.758H136.4V110.345H132V114.758Z" fill="black"/>
<path d="M127.6 110.345H132V105.931H127.6V110.345Z" fill="black"/>
<path d="M127.6 105.931H132V101.517H127.6V105.931Z" fill="black"/>
<path d="M127.6 101.517H132V97.1033H127.6V101.517Z" fill="black"/>
<path d="M127.6 97.1035H132V92.6897H127.6V97.1035Z" fill="black"/>
<path d="M127.6 92.6895H132V88.2757H127.6V92.6895Z" fill="black"/>
<path d="M127.6 88.2759H132V83.8621H127.6V88.2759Z" fill="black"/>
<path d="M127.6 83.8618H132V79.448H127.6V83.8618Z" fill="black"/>
<path d="M127.6 79.4482H132V75.0344H127.6V79.4482Z" fill="black"/>
<path d="M171.6 75.0342H176V70.6204H171.6V75.0342Z" fill="black"/>
<path d="M167.2 75.0342H171.6V70.6204H167.2V75.0342Z" fill="black"/>
<path d="M162.8 79.4482H167.2V75.0344H162.8V79.4482Z" fill="black"/>
<path d="M158.4 83.8618H162.8V79.448H158.4V83.8618Z" fill="black"/>
<path d="M154 88.2759H158.4V83.8621H154V88.2759Z" fill="black"/>
<path d="M149.6 88.2759H154V83.8621H149.6V88.2759Z" fill="black"/>
<path d="M145.2 83.8618H149.6V79.448H145.2V83.8618Z" fill="black"/>
<path d="M140.8 83.8618H145.2V79.448H140.8V83.8618Z" fill="black"/>
<path d="M136.4 83.8618H140.8V79.448H136.4V83.8618Z" fill="black"/>
<path d="M132 79.4482H136.4V75.0344H132V79.4482Z" fill="black"/>
<path d="M123.2 79.4482H127.6V75.0344H123.2V79.4482Z" fill="black"/>
<path d="M118.8 75.0342H123.2V70.6204H118.8V75.0342Z" fill="black"/>
<path d="M114.4 75.0342H118.8V70.6204H114.4V75.0342Z" fill="black"/>
<path d="M110 70.6206H114.4V66.2068H110V70.6206Z" fill="black"/>
<path d="M105.6 70.6206H110V66.2068H105.6V70.6206Z" fill="black"/>
<path d="M101.2 70.6206H105.6V66.2068H101.2V70.6206Z" fill="black"/>
<path d="M105.6 66.2065H110V61.7927H105.6V66.2065Z" fill="black"/>
<path d="M110 61.793H114.4V57.3792H110V61.793Z" fill="black"/>
<path d="M114.4 61.793H118.8V57.3792H114.4V61.793Z" fill="black"/>
<path d="M118.8 57.3789H123.2V52.9651H118.8V57.3789Z" fill="black"/>
<path d="M123.2 57.3789H127.6V52.9651H123.2V57.3789Z" fill="black"/>
<path d="M127.6 52.9653H132V48.5515H127.6V52.9653Z" fill="black"/>
<path d="M123.2 48.5518H127.6V44.138H123.2V48.5518Z" fill="black"/>
<path d="M118.8 48.5518H123.2V44.138H118.8V48.5518Z" fill="black"/>
<path d="M114.4 44.1377H118.8V39.7239H114.4V44.1377Z" fill="black"/>
<path d="M110 39.7241H114.4V35.3103H110V39.7241Z" fill="black"/>
<path d="M105.6 39.7241H110V35.3103H105.6V39.7241Z" fill="black"/>
<path d="M110 35.3101H114.4V30.8963H110V35.3101Z" fill="black"/>
<path d="M114.4 35.3101H118.8V30.8963H114.4V35.3101Z" fill="black"/>
<path d="M118.8 35.3101H123.2V30.8963H118.8V35.3101Z" fill="black"/>
<path d="M123.2 30.8965H127.6V26.4827H123.2V30.8965Z" fill="black"/>
<path d="M127.6 30.8965H132V26.4827H127.6V30.8965Z" fill="black"/>
<path d="M132 26.4824H136.4V22.0686H132V26.4824Z" fill="black"/>
<path d="M136.4 26.4824H140.8V22.0686H136.4V26.4824Z" fill="black"/>
<path d="M140.8 26.4824H145.2V22.0686H140.8V26.4824Z" fill="black"/>
<path d="M145.2 22.0688H149.6V17.6551H145.2V22.0688Z" fill="black"/>
<path d="M149.6 22.0688H154V17.6551H149.6V22.0688Z" fill="black"/>
<path d="M154 17.6548H158.4V13.241H154V17.6548Z" fill="black"/>
<path d="M158.4 22.0688H162.8V17.6551H158.4V22.0688Z" fill="black"/>
<path d="M162.8 26.4824H167.2V22.0686H162.8V26.4824Z" fill="black"/>
<path d="M167.2 26.4824H171.6V22.0686H167.2V26.4824Z" fill="black"/>
<path d="M171.6 30.8965H176V26.4827H171.6V30.8965Z" fill="black"/>
<path d="M176 35.3101H180.4V30.8963H176V35.3101Z" fill="black"/>
<path d="M171.6 35.3101H176V30.8963H171.6V35.3101Z" fill="black"/>
<path d="M167.2 39.7241H171.6V35.3103H167.2V39.7241Z" fill="black"/>
<path d="M162.8 39.7241H167.2V35.3103H162.8V39.7241Z" fill="black"/>
<path d="M158.4 39.7241H162.8V35.3103H158.4V39.7241Z" fill="black"/>
<path d="M154 44.1377H158.4V39.7239H154V44.1377Z" fill="black"/>
<path d="M149.6 44.1377H154V39.7239H149.6V44.1377Z" fill="black"/>
<path d="M145.2 44.1377H149.6V39.7239H145.2V44.1377Z" fill="black"/>
<path d="M140.8 48.5518H145.2V44.138H140.8V48.5518Z" fill="black"/>
<path d="M136.4 48.5518H140.8V44.138H136.4V48.5518Z" fill="black"/>
<path d="M132 52.9653H136.4V48.5515H132V52.9653Z" fill="black"/>
<path d="M136.4 57.3789H140.8V52.9651H136.4V57.3789Z" fill="black"/>
<path d="M140.8 57.3789H145.2V52.9651H140.8V57.3789Z" fill="black"/>
<path d="M145.2 57.3789H149.6V52.9651H145.2V57.3789Z" fill="black"/>
<path d="M149.6 61.793H154V57.3792H149.6V61.793Z" fill="black"/>
<path d="M154 61.793H158.4V57.3792H154V61.793Z" fill="black"/>
<path d="M158.4 61.793H162.8V57.3792H158.4V61.793Z" fill="black"/>
<path d="M162.8 66.2065H167.2V61.7927H162.8V66.2065Z" fill="black"/>
<path d="M167.2 66.2065H171.6V61.7927H167.2V66.2065Z" fill="black"/>
<path d="M171.6 66.2065H176V61.7927H171.6V66.2065Z" fill="black"/>
<path d="M268.4 8.82737V4.41357H264H259.6H255.2V8.82737H250.8V13.2412V17.655V22.0687H255.2V26.4825H259.6H264H268.4V22.0687H272.8V17.655V13.2412V8.82737H268.4Z" fill="#00CED4"/>
<path d="M250.8 8.82764H246.4V13.2414H250.8V8.82764Z" fill="black"/>
<path d="M255.2 4.41357H250.8V8.82737H255.2V4.41357Z" fill="black"/>
<path d="M259.6 0H255.2V4.41379H259.6V0Z" fill="black"/>
<path d="M264 0H259.6V4.41379H264V0Z" fill="black"/>
<path d="M268.4 0H264V4.41379H268.4V0Z" fill="black"/>
<path d="M272.8 4.41357H268.4V8.82737H272.8V4.41357Z" fill="black"/>
<path d="M277.2 8.82764H272.8V13.2414H277.2V8.82764Z" fill="black"/>
<path d="M277.2 13.2412H272.8V17.655H277.2V13.2412Z" fill="black"/>
<path d="M277.2 17.6553H272.8V22.0691H277.2V17.6553Z" fill="black"/>
<path d="M272.8 22.0688H268.4V26.4826H272.8V22.0688Z" fill="black"/>
<path d="M268.4 26.4829H264V30.8967H268.4V26.4829Z" fill="black"/>
<path d="M264 26.4829H259.6V30.8967H264V26.4829Z" fill="black"/>
<path d="M259.6 26.4829H255.2V30.8967H259.6V26.4829Z" fill="black"/>
<path d="M255.2 22.0688H250.8V26.4826H255.2V22.0688Z" fill="black"/>
<path d="M250.8 17.6553H246.4V22.0691H250.8V17.6553Z" fill="black"/>
<path d="M250.8 13.2412H246.4V17.655H250.8V13.2412Z" fill="black"/>
<path d="M79.1999 26.4826V22.0688H74.7999H70.3999H65.9999V26.4826H61.5999V30.8964V35.3102V39.724H65.9999V44.1378H70.3999H74.7999H79.1999V39.724H83.5999V35.3102V30.8964V26.4826H79.1999Z" fill="#00CED4"/>
<path d="M61.6 26.4829H57.2V30.8967H61.6V26.4829Z" fill="black"/>
<path d="M65.9999 22.0688H61.5999V26.4826H65.9999V22.0688Z" fill="black"/>
<path d="M70.4 17.6553H66V22.0691H70.4V17.6553Z" fill="black"/>
<path d="M74.7999 17.6553H70.3999V22.0691H74.7999V17.6553Z" fill="black"/>
<path d="M79.2 17.6553H74.8V22.0691H79.2V17.6553Z" fill="black"/>
<path d="M83.6 22.0688H79.2V26.4826H83.6V22.0688Z" fill="black"/>
<path d="M87.9999 26.4829H83.5999V30.8967H87.9999V26.4829Z" fill="black"/>
<path d="M87.9999 30.8965H83.5999V35.3103H87.9999V30.8965Z" fill="black"/>
<path d="M87.9999 35.3105H83.5999V39.7243H87.9999V35.3105Z" fill="black"/>
<path d="M83.6 39.7241H79.2V44.1379H83.6V39.7241Z" fill="black"/>
<path d="M79.2 44.1382H74.8V48.552H79.2V44.1382Z" fill="black"/>
<path d="M74.7999 44.1382H70.3999V48.552H74.7999V44.1382Z" fill="black"/>
<path d="M70.4 44.1382H66V48.552H70.4V44.1382Z" fill="black"/>
<path d="M65.9999 39.7241H61.5999V44.1379H65.9999V39.7241Z" fill="black"/>
<path d="M61.6 35.3105H57.2V39.7243H61.6V35.3105Z" fill="black"/>
<path d="M61.6 30.8965H57.2V35.3103H61.6V30.8965Z" fill="black"/>
<path d="M220 8.82715H215.6V13.2409V17.6547H220H224.4V13.2409V8.82715H220Z" fill="#00CED4"/>
<path d="M215.6 8.82715H211.2V13.2409H215.6V8.82715Z" fill="black"/>
<path d="M220 4.41357H215.6V8.82737H220V4.41357Z" fill="black"/>
<path d="M224.4 4.41357H220V8.82737H224.4V4.41357Z" fill="black"/>
<path d="M228.8 8.82715H224.4V13.2409H228.8V8.82715Z" fill="black"/>
<path d="M228.8 13.2412H224.4V17.655H228.8V13.2412Z" fill="black"/>
<path d="M224.4 17.6548H220V22.0686H224.4V17.6548Z" fill="black"/>
<path d="M220 17.6548H215.6V22.0686H220V17.6548Z" fill="black"/>
<path d="M215.6 13.2412H211.2V17.655H215.6V13.2412Z" fill="black"/>
<path d="M127.6 4.41357H123.2V8.82737V13.2412H127.6H132V8.82737V4.41357H127.6Z" fill="#00CED4"/>
<path d="M123.2 4.41357H118.8V8.82737H123.2V4.41357Z" fill="black"/>
<path d="M127.6 0H123.2V4.41379H127.6V0Z" fill="black"/>
<path d="M132 0H127.6V4.41379H132V0Z" fill="black"/>
<path d="M136.4 4.41357H132V8.82737H136.4V4.41357Z" fill="black"/>
<path d="M136.4 8.82764H132V13.2414H136.4V8.82764Z" fill="black"/>
<path d="M132 13.2412H127.6V17.655H132V13.2412Z" fill="black"/>
<path d="M127.6 13.2412H123.2V17.655H127.6V13.2412Z" fill="black"/>
<path d="M123.2 8.82764H118.8V13.2414H123.2V8.82764Z" fill="black"/>
<path d="M193.6 35.3101H189.2V39.7239H193.6V35.3101Z" fill="black"/>
<path d="M198 30.8965H193.6V35.3103H198V30.8965Z" fill="black"/>
<path d="M202.4 30.8965H198V35.3103H202.4V30.8965Z" fill="black"/>
<path d="M206.8 35.3101H202.4V39.7239H206.8V35.3101Z" fill="black"/>
<path d="M206.8 39.7241H202.4V44.1379H206.8V39.7241Z" fill="black"/>
<path d="M202.4 44.1377H198V48.5515H202.4V44.1377Z" fill="black"/>
<path d="M198 44.1377H193.6V48.5515H198V44.1377Z" fill="black"/>
<path d="M193.6 39.7241H189.2V44.1379H193.6V39.7241Z" fill="black"/>
<path d="M198 35.3101H193.6V39.7239V44.1376H198H202.4V39.7239V35.3101H198Z" fill="#00CED4"/>
<path d="M299.2 22.0688H294.8V26.4826H299.2V22.0688Z" fill="black"/>
<path d="M294.8 26.4824H290.4V30.8962H294.8V26.4824Z" fill="black"/>
<path d="M290.4 30.8965H286V35.3103H290.4V30.8965Z" fill="black"/>
<path d="M290.4 35.3101H286V39.7239H290.4V35.3101Z" fill="black"/>
<path d="M290.4 39.7241H286V44.1379H290.4V39.7241Z" fill="black"/>
<path d="M303.6 17.6548H299.2V22.0686H303.6V17.6548Z" fill="black"/>
<path d="M308 13.2412H303.6V17.655H308V13.2412Z" fill="black"/>
<path d="M312.4 13.2412H308V17.655H312.4V13.2412Z" fill="black"/>
<path d="M316.8 13.2412H312.4V17.655H316.8V13.2412Z" fill="black"/>
<path d="M334.4 26.4824H338.8V22.0686H334.4V26.4824Z" fill="black"/>
<path d="M338.8 30.8965H343.2V26.4827H338.8V30.8965Z" fill="black"/>
<path d="M343.2 35.3101H347.6V30.8963H343.2V35.3101Z" fill="black"/>
<path d="M343.2 39.7241H347.6V35.3103H343.2V39.7241Z" fill="black"/>
<path d="M343.2 44.1377H347.6V39.7239H343.2V44.1377Z" fill="black"/>
<path d="M330 22.0688H334.4V17.6551H330V22.0688Z" fill="black"/>
<path d="M325.6 17.6548H330V13.241H325.6V17.6548Z" fill="black"/>
<path d="M321.2 17.6548H325.6V13.241H321.2V17.6548Z" fill="black"/>
<path d="M316.8 17.6548H321.2V13.241H316.8V17.6548Z" fill="black"/>
<path d="M334.4 66.2065H338.8V61.7927H334.4V66.2065Z" fill="black"/>
<path d="M338.8 61.793H343.2V57.3792H338.8V61.793Z" fill="black"/>
<path d="M343.2 57.3789H347.6V52.9651H343.2V57.3789Z" fill="black"/>
<path d="M343.2 52.9653H347.6V48.5515H343.2V52.9653Z" fill="black"/>
<path d="M343.2 48.5513H347.6V44.1375H343.2V48.5513Z" fill="black"/>
<path d="M330 70.6206H334.4V66.2068H330V70.6206Z" fill="black"/>
<path d="M325.6 75.0342H330V70.6204H325.6V75.0342Z" fill="black"/>
<path d="M321.2 75.0342H325.6V70.6204H321.2V75.0342Z" fill="black"/>
<path d="M316.8 75.0342H321.2V70.6204H316.8V75.0342Z" fill="black"/>
<path d="M299.2 61.793H294.8V66.2068H299.2V61.793Z" fill="black"/>
<path d="M294.8 57.3789H290.4V61.7927H294.8V57.3789Z" fill="black"/>
<path d="M290.4 52.9653H286V57.3791H290.4V52.9653Z" fill="black"/>
<path d="M290.4 48.5513H286V52.9651H290.4V48.5513Z" fill="black"/>
<path d="M290.4 44.1377H286V48.5515H290.4V44.1377Z" fill="black"/>
<path d="M303.6 66.2065H299.2V70.6203H303.6V66.2065Z" fill="black"/>
<path d="M308 70.6206H303.6V75.0344H308V70.6206Z" fill="black"/>
<path d="M312.4 70.6206H308V75.0344H312.4V70.6206Z" fill="black"/>
<path d="M316.8 70.6206H312.4V75.0344H316.8V70.6206Z" fill="black"/>
<path d="M343.2 30.8873V57.3789H338.791V61.8015H334.4V66.2065H329.991V70.6291H303.6V66.2065H299.191V61.8015H294.8V57.3789H290.391V30.8873H294.8V26.4824H299.191V22.0598H303.6V17.6548H329.991V22.0598H334.4V26.4824H338.791V30.8873H343.2Z" fill="#00CED4"/>
<path d="M13.2 52.9653H8.80005V57.3791H13.2V52.9653Z" fill="black"/>
<path d="M8.7999 57.3789H4.3999V61.7927H8.7999V57.3789Z" fill="black"/>
<path d="M4.4 61.793H0V66.2068H4.4V61.793Z" fill="black"/>
<path d="M4.4 66.2065H0V70.6203H4.4V66.2065Z" fill="black"/>
<path d="M4.4 70.6206H0V75.0344H4.4V70.6206Z" fill="black"/>
<path d="M17.6 48.5513H13.2V52.9651H17.6V48.5513Z" fill="black"/>
<path d="M22.0001 44.1377H17.6001V48.5515H22.0001V44.1377Z" fill="black"/>
<path d="M26.4 44.1377H22V48.5515H26.4V44.1377Z" fill="black"/>
<path d="M30.7999 44.1377H26.3999V48.5515H30.7999V44.1377Z" fill="black"/>
<path d="M48.4 57.3789H52.8V52.9651H48.4V57.3789Z" fill="black"/>
<path d="M52.8 61.793H57.2V57.3792H52.8V61.793Z" fill="black"/>
<path d="M57.2001 66.2065H61.6001V61.7927H57.2001V66.2065Z" fill="black"/>
<path d="M57.2001 70.6206H61.6001V66.2068H57.2001V70.6206Z" fill="black"/>
<path d="M57.2001 75.0342H61.6001V70.6204H57.2001V75.0342Z" fill="black"/>
<path d="M44.0001 52.9653H48.4001V48.5515H44.0001V52.9653Z" fill="black"/>
<path d="M39.6 48.5513H44V44.1375H39.6V48.5513Z" fill="black"/>
<path d="M35.2001 48.5513H39.6001V44.1375H35.2001V48.5513Z" fill="black"/>
<path d="M30.8 48.5513H35.2V44.1375H30.8V48.5513Z" fill="black"/>
<path d="M48.4 97.103H52.8V92.6892H48.4V97.103Z" fill="black"/>
<path d="M52.8 92.6895H57.2V88.2757H52.8V92.6895Z" fill="black"/>
<path d="M57.2001 88.2754H61.6001V83.8616H57.2001V88.2754Z" fill="black"/>
<path d="M57.2001 83.8618H61.6001V79.448H57.2001V83.8618Z" fill="black"/>
<path d="M57.2001 79.4478H61.6001V75.034H57.2001V79.4478Z" fill="black"/>
<path d="M44.0001 101.517H48.4001V97.1033H44.0001V101.517Z" fill="black"/>
<path d="M39.6 105.931H44V101.517H39.6V105.931Z" fill="black"/>
<path d="M35.2001 105.931H39.6001V101.517H35.2001V105.931Z" fill="black"/>
<path d="M30.8 105.931H35.2V101.517H30.8V105.931Z" fill="black"/>
<path d="M13.2 92.6895H8.80005V97.1032H13.2V92.6895Z" fill="black"/>
<path d="M8.7999 88.2754H4.3999V92.6892H8.7999V88.2754Z" fill="black"/>
<path d="M4.4 83.8618H0V88.2756H4.4V83.8618Z" fill="black"/>
<path d="M4.4 79.4478H0V83.8615H4.4V79.4478Z" fill="black"/>
<path d="M4.4 75.0342H0V79.448H4.4V75.0342Z" fill="black"/>
<path d="M17.6 97.103H13.2V101.517H17.6V97.103Z" fill="black"/>
<path d="M22.0001 101.517H17.6001V105.931H22.0001V101.517Z" fill="black"/>
<path d="M26.4 101.517H22V105.931H26.4V101.517Z" fill="black"/>
<path d="M30.7999 101.517H26.3999V105.931H30.7999V101.517Z" fill="black"/>
<path d="M57.1999 61.7838V88.2754H52.7911V92.698H48.3999V97.103H43.9911V101.526H17.5999V97.103H13.1911V92.698H8.79991V88.2754H4.39111V61.7838H8.79991V57.3789H13.1911V52.9562H17.5999V48.5513H43.9911V52.9562H48.3999V57.3789H52.7911V61.7838H57.1999Z" fill="#00CED4"/>
<path d="M338.8 83.8618H343.2V79.448H338.8V83.8618Z" fill="black"/>
<path d="M343.2 79.4482H347.6V75.0344H343.2V79.4482Z" fill="black"/>
<path d="M347.6 75.0342H352V70.6204H347.6V75.0342Z" fill="black"/>
<path d="M352 75.0342H356.4V70.6204H352V75.0342Z" fill="black"/>
<path d="M338.8 88.2759H343.2V83.8621H338.8V88.2759Z" fill="black"/>
<path d="M374 79.4482H369.6V83.862H374V79.4482Z" fill="black"/>
<path d="M369.6 75.0342H365.2V79.448H369.6V75.0342Z" fill="black"/>
<path d="M365.2 70.6206H360.8V75.0344H365.2V70.6206Z" fill="black"/>
<path d="M360.8 70.6206H356.4V75.0344H360.8V70.6206Z" fill="black"/>
<path d="M374 83.8618H369.6V88.2756H374V83.8618Z" fill="black"/>
<path d="M374 92.6895H369.6V97.1032H374V92.6895Z" fill="black"/>
<path d="M369.6 97.1035H365.2V101.517H369.6V97.1035Z" fill="black"/>
<path d="M365.2 101.517H360.8V105.931H365.2V101.517Z" fill="black"/>
<path d="M360.8 101.517H356.4V105.931H360.8V101.517Z" fill="black"/>
<path d="M374 88.2759H369.6V92.6897H374V88.2759Z" fill="black"/>
<path d="M338.8 97.1035H343.2V92.6897H338.8V97.1035Z" fill="black"/>
<path d="M343.2 101.517H347.6V97.1033H343.2V101.517Z" fill="black"/>
<path d="M347.6 105.931H352V101.517H347.6V105.931Z" fill="black"/>
<path d="M352 105.931H356.4V101.517H352V105.931Z" fill="black"/>
<path d="M338.8 92.6895H343.2V88.2757H338.8V92.6895Z" fill="black"/>
<path d="M369.591 79.4391V97.0943H365.2V101.508H347.6V97.0943H343.209V79.4391H347.6V75.0342H365.2V79.4391H369.591Z" fill="#00CED4"/>
</g>
<defs>
<clipPath id="clip0_1840_67723">
<rect width="374" height="128" fill="white"/>
</clipPath>
</defs>
</svg>
