<svg xmlns="http://www.w3.org/2000/svg" width="99" height="100" fill="none" viewBox="0 0 99 100"><path fill="#ff0" d="M94.01 54.637V34.769h-4.947v-9.934h-4.948V14.9h-9.896V9.934h-9.896V4.967H34.636v4.967H24.74v4.967h-9.896v9.934H9.896v9.934H4.948V64.57h4.948v9.934h4.948v9.934h9.896v4.967h9.896v4.967h29.687v-4.967h9.896v-4.967h9.896v-9.934h4.948V64.57h4.948v-9.933"/><path fill="#000" d="M54.428 0H49.48v4.967h4.948z"/><path fill="#000" d="M59.375 0h-4.948v4.967h4.948zm4.949 0h-4.948v4.967h4.948zm4.948 4.967h-4.948v4.967h4.948zm4.948 0h-4.948v4.967h4.948zm4.948 4.967H74.22v4.967h4.948z"/><path fill="#000" d="M84.115 9.934h-4.948v4.967h4.948zm4.949 4.967h-4.948v4.967h4.948zm0 4.967h-4.948v4.967h4.948zm4.947 4.967h-4.947v4.967h4.947zm0 4.967h-4.947v4.967h4.947zm4.948 4.967H94.01v4.967h4.948zm0 4.967H94.01v4.967h4.948zm0 4.967H94.01v4.967h4.948zM44.532 4.967h4.948V0h-4.948zm-4.949 0h4.948V0h-4.948z"/><path fill="#000" d="M34.636 4.967h4.947V0h-4.947zm-4.948 4.967h4.948V4.967h-4.948zm-4.948 0h4.948V4.967H24.74zm-4.948 4.967h4.948V9.934h-4.948z"/><path fill="#000" d="M14.845 14.901h4.948V9.934h-4.948z"/><path fill="#000" d="M9.897 19.868h4.948V14.9H9.897zm0 4.967h4.948v-4.967H9.897zm-4.948 4.967h4.947v-4.967H4.95zm0 4.967h4.947v-4.967H4.95zM0 39.736h4.948v-4.967H0zm0 4.967h4.948v-4.967H0zm0 4.967h4.948v-4.967H0zm54.428 44.702H49.48v4.967h4.948z"/><path fill="#000" d="M59.375 94.372h-4.948v4.967h4.948zm4.949 0h-4.948v4.967h4.948zm4.948-4.967h-4.948v4.967h4.948zm4.948 0h-4.948v4.967h4.948zm4.948-4.967H74.22v4.967h4.948z"/><path fill="#000" d="M84.115 84.438h-4.948v4.967h4.948zm4.949-4.967h-4.948v4.967h4.948zm0-4.967h-4.948v4.967h4.948zm4.947-4.967h-4.947v4.967h4.947zm0-4.967h-4.947v4.967h4.947zm4.948-4.967H94.01v4.967h4.948zm0-4.967H94.01v4.967h4.948zm0-4.966H94.01v4.966h4.948zM44.532 99.339h4.948v-4.967h-4.948zm-4.949 0h4.948v-4.967h-4.948z"/><path fill="#000" d="M34.636 99.339h4.947v-4.967h-4.947zm-4.948-4.967h4.948v-4.967h-4.948zm-4.948 0h4.948v-4.967H24.74zm-4.948-4.967h4.948v-4.967h-4.948z"/><path fill="#000" d="M14.845 89.405h4.948v-4.967h-4.948zm-4.948-4.967h4.948v-4.967H9.897zm0-4.967h4.948v-4.967H9.897zm-4.948-4.967h4.947v-4.967H4.95zm0-4.967h4.947V64.57H4.95zM0 64.57h4.948v-4.967H0z"/><path fill="#000" d="M0 59.603h4.948v-4.967H0zm0-4.967h4.948V49.67H0zm59.376-14.9h-4.948v4.967h4.948zm-14.844 0h-4.947v4.967h4.947zm0 14.901h-4.947v4.967h4.947zm4.948 4.967h-4.948v4.967h4.948zm4.948 0h-4.947v4.967h4.947zm4.948-4.967h-4.948v4.967h4.948z"/></svg>