<svg width="39" height="28" viewBox="0 0 39 28" fill="none" xmlns="http://www.w3.org/2000/svg">
<path d="M15.8263 12.174V10.9566H14.6089V9.73926H13.3915H12.1741H10.9568V10.9566H9.73936V12.174H8.52197V13.3914V14.6088V15.8262H9.73936V17.0436H10.9568V18.261H12.1741H13.3915H14.6089V17.0436H15.8263V15.8262H17.0437V14.6088V13.3914V12.174H15.8263Z" fill="#D390FF"/>
<path d="M15.826 7.30424V6.08685V4.86946H14.6086V3.65207H13.3912V2.43468H12.1738V1.21729H10.9564H9.73902H8.52163H7.30424H6.08685V2.43468H4.86946V3.65207H3.65207V4.86946H2.43468V6.08685V7.30424V8.52163H1.21729V9.73902V10.9564V12.1738V13.3912V14.6086V15.826V17.0434V18.2608V19.4782H2.43468V20.6955V21.9129V23.1303H3.65207V24.3477H4.86946V25.5651H6.08685V26.7825H7.30424H8.52163H9.73902H10.9564H12.1738V25.5651H13.3912V24.3477H14.6086V23.1303H15.826V21.9129V20.6955V19.4782H17.0434V18.2608V17.0434H15.826V18.2608H14.6086V19.4782H13.3912H12.1738H10.9564V18.2608H9.73902V17.0434H8.52163V15.826H7.30424V14.6086V13.3912V12.1738H8.52163V10.9564H9.73902V9.73902H10.9564V8.52163H12.1738H13.3912H14.6086V9.73902H15.826V10.9564H17.0434V9.73902V8.52163H15.826V7.30424Z" fill="white"/>
<path d="M9.73936 0H8.52197V1.21739H9.73936V0Z" fill="black"/>
<path d="M8.52159 0H7.3042V1.21739H8.52159V0Z" fill="black"/>
<path d="M7.30431 0H6.08691V1.21739H7.30431V0Z" fill="black"/>
<path d="M6.08702 1.21729H4.86963V2.43468H6.08702V1.21729Z" fill="black"/>
<path d="M4.86974 2.43457H3.65234V3.65196H4.86974V2.43457Z" fill="black"/>
<path d="M3.65196 3.65234H2.43457V4.86974H3.65196V3.65234Z" fill="black"/>
<path d="M2.43468 4.86963H1.21729V6.08702H2.43468V4.86963Z" fill="black"/>
<path d="M2.43468 6.08691H1.21729V7.30431H2.43468V6.08691Z" fill="black"/>
<path d="M2.43468 7.3042H1.21729V8.52159H2.43468V7.3042Z" fill="black"/>
<path d="M1.21739 8.52197H0V9.73936H1.21739V8.52197Z" fill="black"/>
<path d="M1.21739 9.73926H0V10.9566H1.21739V9.73926Z" fill="black"/>
<path d="M1.21739 10.9565H0V12.1739H1.21739V10.9565Z" fill="black"/>
<path d="M1.21739 12.1738H0V13.3912H1.21739V12.1738Z" fill="black"/>
<path d="M9.73936 26.7827H8.52197V28.0001H9.73936V26.7827Z" fill="black"/>
<path d="M8.52159 26.7827H7.3042V28.0001H8.52159V26.7827Z" fill="black"/>
<path d="M7.30431 26.7827H6.08691V28.0001H7.30431V26.7827Z" fill="black"/>
<path d="M6.08702 25.5654H4.86963V26.7828H6.08702V25.5654Z" fill="black"/>
<path d="M4.86974 24.3477H3.65234V25.565H4.86974V24.3477Z" fill="black"/>
<path d="M3.65196 23.1304H2.43457V24.3478H3.65196V23.1304Z" fill="black"/>
<path d="M2.43468 21.9131H1.21729V23.1305H2.43468V21.9131Z" fill="black"/>
<path d="M2.43468 20.6958H1.21729V21.9132H2.43468V20.6958Z" fill="black"/>
<path d="M2.43468 19.478H1.21729V20.6954H2.43468V19.478Z" fill="black"/>
<path d="M1.21739 18.2607H0V19.4781H1.21739V18.2607Z" fill="black"/>
<path d="M1.21739 17.0435H0V18.2608H1.21739V17.0435Z" fill="black"/>
<path d="M1.21739 15.8262H0V17.0436H1.21739V15.8262Z" fill="black"/>
<path d="M1.21739 14.6089H0V15.8263H1.21739V14.6089Z" fill="black"/>
<path d="M1.21739 13.3911H0V14.6085H1.21739V13.3911Z" fill="black"/>
<path d="M8.52187 28H9.73926V26.7826H8.52187V28Z" fill="black"/>
<path d="M9.73964 28H10.957V26.7826H9.73964V28Z" fill="black"/>
<path d="M10.9569 28H12.1743V26.7826H10.9569V28Z" fill="black"/>
<path d="M12.1742 26.7822H13.3916V25.5648H12.1742V26.7822Z" fill="black"/>
<path d="M13.3915 25.5649H14.6089V24.3476H13.3915V25.5649Z" fill="black"/>
<path d="M14.6088 24.3477H15.8262V23.1303H14.6088V24.3477Z" fill="black"/>
<path d="M15.8266 23.1304H17.0439V21.913H15.8266V23.1304Z" fill="black"/>
<path d="M15.8266 21.9131H17.0439V20.6957H15.8266V21.9131Z" fill="black"/>
<path d="M15.8266 20.6953H17.0439V19.4779H15.8266V20.6953Z" fill="black"/>
<path d="M17.0438 19.478H18.2612V18.2606H17.0438V19.478Z" fill="black"/>
<path d="M17.0438 18.2607H18.2612V17.0434H17.0438V18.2607Z" fill="black"/>
<path d="M17.0438 17.0435H18.2612V15.8261H17.0438V17.0435Z" fill="black"/>
<path d="M17.0438 15.8257H18.2612V14.6083H17.0438V15.8257Z" fill="black"/>
<path d="M8.52187 1.21729L9.73926 1.21729V-0.000106096L8.52187 -0.000106096V1.21729Z" fill="black"/>
<path d="M9.73915 1.21729L10.9565 1.21729V-0.000106096L9.73915 -0.000106096V1.21729Z" fill="black"/>
<path d="M10.9564 1.21729L12.1738 1.21729V-0.000106096L10.9564 -0.000106096V1.21729Z" fill="black"/>
<path d="M12.1737 2.43457H13.3911V1.21718L12.1737 1.21718V2.43457Z" fill="black"/>
<path d="M13.3915 3.65234H14.6089V2.43495H13.3915V3.65234Z" fill="black"/>
<path d="M14.6088 4.86963H15.8262V3.65224H14.6088V4.86963Z" fill="black"/>
<path d="M15.8261 6.08691H17.0435V4.86952H15.8261V6.08691Z" fill="black"/>
<path d="M15.8261 7.3042H17.0435V6.08681H15.8261V7.3042Z" fill="black"/>
<path d="M15.8261 8.52197H17.0435V7.30458H15.8261V8.52197Z" fill="black"/>
<path d="M17.0434 9.73926H18.2607V8.52187H17.0434V9.73926Z" fill="black"/>
<path d="M17.0434 10.9565H18.2607V9.73915H17.0434V10.9565Z" fill="black"/>
<path d="M12.1737 9.73877H13.3911V8.52138H12.1737V9.73877Z" fill="black"/>
<path d="M10.9564 9.73877H12.1738V8.52138H10.9564V9.73877Z" fill="black"/>
<path d="M9.73915 10.9565H10.9565V9.73915H9.73915V10.9565Z" fill="black"/>
<path d="M8.52138 12.1738H9.73877V10.9564H8.52138V12.1738Z" fill="black"/>
<path d="M7.30409 13.3911H8.52148V12.1737H7.30409V13.3911Z" fill="black"/>
<path d="M7.30409 14.6084H8.52148V13.391H7.30409V14.6084Z" fill="black"/>
<path d="M13.3912 8.52197H12.1738V9.73936H13.3912V8.52197Z" fill="black"/>
<path d="M14.6085 8.52197H13.3911V9.73936H14.6085V8.52197Z" fill="black"/>
<path d="M15.8263 9.73926H14.6089V10.9566H15.8263V9.73926Z" fill="black"/>
<path d="M17.0436 10.9565H15.8262V12.1739H17.0436V10.9565Z" fill="black"/>
<path d="M18.2608 12.1738H17.0435V13.3912H18.2608V12.1738Z" fill="black"/>
<path d="M18.2608 13.3911H17.0435V14.6085H18.2608V13.3911Z" fill="black"/>
<path d="M12.1732 19.4785H13.3906V18.2611H12.1732V19.4785Z" fill="black"/>
<path d="M10.9559 19.4785H12.1733V18.2611H10.9559V19.4785Z" fill="black"/>
<path d="M9.73866 18.2612H10.9561V17.0438H9.73866V18.2612Z" fill="black"/>
<path d="M8.52089 17.0439H9.73828V15.8266H8.52089V17.0439Z" fill="black"/>
<path d="M7.3036 15.8262H8.521V14.6088H7.3036V15.8262Z" fill="black"/>
<path d="M7.3036 14.6089H8.521V13.3915H7.3036V14.6089Z" fill="black"/>
<path d="M13.3907 18.2607H12.1733V19.4781H13.3907V18.2607Z" fill="black"/>
<path d="M14.608 18.2607H13.3906V19.4781H14.608V18.2607Z" fill="black"/>
<path d="M15.8258 17.0435H14.6084V18.2608H15.8258V17.0435Z" fill="black"/>
<path d="M17.0431 15.8262H15.8257V17.0436H17.0431V15.8262Z" fill="black"/>
<path d="M18.2604 14.6089H17.043V15.8263H18.2604V14.6089Z" fill="black"/>
<path d="M18.2604 13.3911H17.043V14.6085H18.2604V13.3911Z" fill="black"/>
<path d="M17.0434 12.1738H18.2607V10.9564H17.0434V12.1738Z" fill="black"/>
<path d="M17.0434 13.3911H18.2607V12.1737H17.0434V13.3911Z" fill="black"/>
<path d="M36.5223 8.52163V7.30424V6.08685V4.86946H35.3049V3.65207H34.0875V2.43468H32.8701V1.21729H31.6527H30.4353H29.2179H28.0005H26.7831V2.43468H25.5657V3.65207H24.3484V4.86946H23.131V6.08685V7.30424V8.52163H21.9136V9.73902V10.9564V12.1738V13.3912V14.6086V15.826V17.0434V18.2608V19.4782H23.131V20.6955V21.9129V23.1303H24.3484V24.3477H25.5657V25.5651H26.7831V26.7825H28.0005H29.2179H30.4353H31.6527H32.8701V25.5651H34.0875V24.3477H35.3049V23.1303H36.5223V21.9129V20.6955V19.4782H37.7397V18.2608V17.0434H36.5223V18.2608H35.3049V19.4782H34.0875H32.8701H31.6527V18.2608H30.4353V17.0434H29.2179V15.826H28.0005V14.6086V13.3912V12.1738H29.2179V10.9564H30.4353V9.73902H31.6527V8.52163H32.8701H34.0875H35.3049V9.73902H36.5223V10.9564H37.7397V9.73902V8.52163H36.5223Z" fill="white"/>
<path d="M36.5221 12.174V10.9566H35.3047V9.73926H34.0873H32.8699H31.6526V10.9566H30.4352V12.174H29.2178V13.3914V14.6088V15.8262H30.4352V17.0436H31.6526V18.261H32.8699H34.0873H35.3047V17.0436H36.5221V15.8262H37.7395V14.6088V13.3914V12.174H36.5221Z" fill="#D390FF"/>
<path d="M30.4352 0H29.2178V1.21739H30.4352V0Z" fill="black"/>
<path d="M29.2179 0H28.0005V1.21739H29.2179V0Z" fill="black"/>
<path d="M28.0006 0H26.7832V1.21739H28.0006V0Z" fill="black"/>
<path d="M26.7833 1.21729H25.5659V2.43468H26.7833V1.21729Z" fill="black"/>
<path d="M25.5655 2.43506H24.3481V3.65245H25.5655V2.43506Z" fill="black"/>
<path d="M24.3483 3.65234H23.1309V4.86974H24.3483V3.65234Z" fill="black"/>
<path d="M23.131 4.86963H21.9136V6.08702H23.131V4.86963Z" fill="black"/>
<path d="M23.131 6.08691H21.9136V7.30431H23.131V6.08691Z" fill="black"/>
<path d="M23.131 7.30469H21.9136V8.52208H23.131V7.30469Z" fill="black"/>
<path d="M21.9137 8.52197H20.6963V9.73936H21.9137V8.52197Z" fill="black"/>
<path d="M21.9137 9.73926H20.6963V10.9566H21.9137V9.73926Z" fill="black"/>
<path d="M21.9137 10.9565H20.6963V12.1739H21.9137V10.9565Z" fill="black"/>
<path d="M21.9137 12.1738H20.6963V13.3912H21.9137V12.1738Z" fill="black"/>
<path d="M30.4352 26.7827H29.2178V28.0001H30.4352V26.7827Z" fill="black"/>
<path d="M29.2179 26.7827H28.0005V28.0001H29.2179V26.7827Z" fill="black"/>
<path d="M28.0006 26.7827H26.7832V28.0001H28.0006V26.7827Z" fill="black"/>
<path d="M26.7833 25.5654H25.5659V26.7828H26.7833V25.5654Z" fill="black"/>
<path d="M25.5655 24.3481H24.3481V25.5655H25.5655V24.3481Z" fill="black"/>
<path d="M24.3483 23.1304H23.1309V24.3478H24.3483V23.1304Z" fill="black"/>
<path d="M23.131 21.9131H21.9136V23.1305H23.131V21.9131Z" fill="black"/>
<path d="M23.131 20.6958H21.9136V21.9132H23.131V20.6958Z" fill="black"/>
<path d="M23.131 19.4785H21.9136V20.6959H23.131V19.4785Z" fill="black"/>
<path d="M21.9137 18.2607H20.6963V19.4781H21.9137V18.2607Z" fill="black"/>
<path d="M21.9137 17.0435H20.6963V18.2608H21.9137V17.0435Z" fill="black"/>
<path d="M21.9137 15.8262H20.6963V17.0436H21.9137V15.8262Z" fill="black"/>
<path d="M21.9137 14.6089H20.6963V15.8263H21.9137V14.6089Z" fill="black"/>
<path d="M21.9137 13.3916H20.6963V14.609H21.9137V13.3916Z" fill="black"/>
<path d="M29.2177 28H30.4351V26.7826H29.2177V28Z" fill="black"/>
<path d="M30.4354 28H31.6528V26.7826H30.4354V28Z" fill="black"/>
<path d="M31.6527 28H32.8701V26.7826H31.6527V28Z" fill="black"/>
<path d="M32.87 26.7827H34.0874V25.5653H32.87V26.7827Z" fill="black"/>
<path d="M34.0873 25.5654H35.3047V24.348H34.0873V25.5654Z" fill="black"/>
<path d="M35.3051 24.3481H36.5225V23.1308H35.3051V24.3481Z" fill="black"/>
<path d="M36.5224 23.1304H37.7397V21.913H36.5224V23.1304Z" fill="black"/>
<path d="M36.5224 21.9131H37.7397V20.6957H36.5224V21.9131Z" fill="black"/>
<path d="M36.5224 20.6958H37.7397V19.4784H36.5224V20.6958Z" fill="black"/>
<path d="M37.7396 19.4785H38.957V18.2611H37.7396V19.4785Z" fill="black"/>
<path d="M37.7396 18.2607H38.957V17.0434H37.7396V18.2607Z" fill="black"/>
<path d="M37.7396 17.0435H38.957V15.8261H37.7396V17.0435Z" fill="black"/>
<path d="M37.7396 15.8262H38.957V14.6088H37.7396V15.8262Z" fill="black"/>
<path d="M29.2177 1.21729L30.4351 1.21729V-0.000106096L29.2177 -0.000106096V1.21729Z" fill="black"/>
<path d="M30.4354 1.21729L31.6528 1.21729V-0.000106096L30.4354 -0.000106096V1.21729Z" fill="black"/>
<path d="M31.6527 1.21729L32.8701 1.21729V-0.000106096L31.6527 -0.000106096V1.21729Z" fill="black"/>
<path d="M32.87 2.43506H34.0874V1.21767L32.87 1.21767V2.43506Z" fill="black"/>
<path d="M34.0873 3.65234H35.3047V2.43495H34.0873V3.65234Z" fill="black"/>
<path d="M35.3051 4.86963H36.5225V3.65224H35.3051V4.86963Z" fill="black"/>
<path d="M36.5224 6.08691H37.7397V4.86952H36.5224V6.08691Z" fill="black"/>
<path d="M36.5224 7.30469H37.7397V6.0873H36.5224V7.30469Z" fill="black"/>
<path d="M36.5224 8.52197H37.7397V7.30458H36.5224V8.52197Z" fill="black"/>
<path d="M37.7396 9.73926H38.957V8.52187H37.7396V9.73926Z" fill="black"/>
<path d="M37.7396 10.9565H38.957V9.73915H37.7396V10.9565Z" fill="black"/>
<path d="M32.87 9.73877H34.0874V8.52138H32.87V9.73877Z" fill="black"/>
<path d="M31.6527 9.73877H32.8701V8.52138H31.6527V9.73877Z" fill="black"/>
<path d="M30.435 10.9565H31.6523V9.73915H30.435V10.9565Z" fill="black"/>
<path d="M29.2177 12.1738H30.4351V10.9564H29.2177V12.1738Z" fill="black"/>
<path d="M28.0004 13.3911H29.2178V12.1737H28.0004V13.3911Z" fill="black"/>
<path d="M28.0004 14.6084H29.2178V13.391H28.0004V14.6084Z" fill="black"/>
<path d="M34.088 8.52197H32.8706V9.73936H34.088V8.52197Z" fill="black"/>
<path d="M35.3053 8.52197H34.0879V9.73936H35.3053V8.52197Z" fill="black"/>
<path d="M36.5226 9.73926H35.3052V10.9566H36.5226V9.73926Z" fill="black"/>
<path d="M37.7403 10.9565H36.5229V12.1739H37.7403V10.9565Z" fill="black"/>
<path d="M38.9576 12.1738H37.7402V13.3912H38.9576V12.1738Z" fill="black"/>
<path d="M38.9576 13.3911H37.7402V14.6085H38.9576V13.3911Z" fill="black"/>
<path d="M32.87 19.4785H34.0874V18.2611H32.87V19.4785Z" fill="black"/>
<path d="M31.6527 19.4785H32.8701V18.2611H31.6527V19.4785Z" fill="black"/>
<path d="M30.435 18.2612H31.6523V17.0438H30.435V18.2612Z" fill="black"/>
<path d="M29.2177 17.0439H30.4351V15.8266H29.2177V17.0439Z" fill="black"/>
<path d="M28.0004 15.8262H29.2178V14.6088H28.0004V15.8262Z" fill="black"/>
<path d="M28.0004 14.6089H29.2178V13.3915H28.0004V14.6089Z" fill="black"/>
<path d="M34.088 18.2612H32.8706V19.4786H34.088V18.2612Z" fill="black"/>
<path d="M35.3053 18.2612H34.0879V19.4786H35.3053V18.2612Z" fill="black"/>
<path d="M36.5226 17.0439H35.3052V18.2613H36.5226V17.0439Z" fill="black"/>
<path d="M37.7403 15.8267H36.5229V17.0441H37.7403V15.8267Z" fill="black"/>
<path d="M38.9576 14.6094H37.7402V15.8268H38.9576V14.6094Z" fill="black"/>
<path d="M38.9576 13.3916H37.7402V14.609H38.9576V13.3916Z" fill="black"/>
<path d="M37.7396 12.1738H38.957V10.9564H37.7396V12.1738Z" fill="black"/>
<path d="M37.7396 13.3916H38.957V12.1742H37.7396V13.3916Z" fill="black"/>
</svg>
