<svg xmlns="http://www.w3.org/2000/svg" width="374" height="128" fill="none" viewBox="0 0 374 128"><g clip-path="url(#clip0_1840_67723)"><path fill="#fff" d="M171.6 35.31v4.414h-13.2v4.414h-13.2v4.413h-8.8v4.414h13.2v4.414h13.2v4.414H176v4.414h4.4V35.31z"/><path fill="#fff" d="M154 61.793h-4.4v-4.414h-13.2v-4.414h-8.8v4.414h-8.8v4.414H110v4.414h4.4v4.414h8.8v4.413h13.2v4.414h13.2v4.414h8.8v-4.414h4.4v-4.414h4.4v-4.413h8.8v-4.414h-13.2v-4.414z"/><path fill="#fff" d="M162.8 79.448v4.414h-4.4v4.414h-8.8v-4.414h-13.2v-4.414H132v30.897h13.2v4.413h13.2v4.414h8.8v4.414h8.8V75.034h-8.8v4.414zm-22-35.31h4.4v-4.414h13.2V35.31h13.2v-8.828h-8.8V22.07h-4.4v-4.414H154v4.414h-8.8v4.413H132v4.414h-8.8v4.414h-8.8v4.414h4.4v4.414h8.8v4.413h8.8v-4.413zM198 57.379h8.8v-4.414H220v-4.414h-8.8v-4.413H198v-4.414h-13.2V35.31h-4.4v26.483h13.2v-4.414z"/><path fill="#fff" d="M242 61.793h-4.4v-4.414h-8.8v-4.414H220v4.414h-13.2v4.414h-13.2v4.414h-13.2v4.414h8.8v4.413h4.4v4.414h4.4v4.414h8.8v-4.414H220v-4.414h13.2v-4.413h8.8v-4.414h4.4v-4.414z"/><path fill="#fff" d="M215.6 83.862h-8.8v4.414H198v-4.414h-4.4v-4.414h-4.4v-4.414h-8.8v48.552h8.8v-4.414h8.8v-4.414h13.2v-4.413h13.2V79.448H220v4.414zm-22-48.552h4.4v4.414h13.2v4.414h8.8v4.413h8.8v-4.413h8.8v-4.414h4.4V35.31h-8.8v-4.414h-8.8v-4.414h-13.2V22.07h-8.8v-4.414H198v4.414h-4.4v4.413h-8.8v8.828z"/><path fill="#000" d="M180.4 66.207H176v4.413h4.4zm0 4.413H176v4.414h4.4zm0 4.414H176v4.414h4.4zm0 4.414H176v4.414h4.4zm0 4.414H176v4.414h4.4zm0 4.414H176v4.414h4.4zm0 4.414H176v4.413h4.4zm0 4.414H176v4.413h4.4zm0 4.413H176v4.414h4.4zm0 4.414H176v4.413h4.4zm0 4.414H176v4.414h4.4z"/><path fill="#000" d="M180.4 114.758H176v4.414h4.4zm0 4.414H176v4.414h4.4zm0 4.414H176V128h4.4zm4.4 0h-4.4V128h4.4z"/><path fill="#000" d="M189.2 123.586h-4.4V128h4.4zm4.4-4.414h-4.4v4.414h4.4zm4.4 0h-4.4v4.414h4.4zm4.4-4.414H198v4.414h4.4zm4.4 0h-4.4v4.414h4.4z"/><path fill="#000" d="M211.2 114.758h-4.4v4.414h4.4zm4.4-4.413h-4.4v4.414h4.4zm4.4 0h-4.4v4.414h4.4zm4.4 0H220v4.414h4.4zm4.4-4.414h-4.4v4.413h4.4zm0-4.414h-4.4v4.414h4.4zm0-4.413h-4.4v4.413h4.4zm0-4.414h-4.4v4.413h4.4zm0-4.414h-4.4v4.414h4.4zm0-4.414h-4.4v4.414h4.4zm0-4.414h-4.4v4.414h4.4z"/><path fill="#000" d="M228.8 75.034h-4.4v4.414h4.4zm-44-4.414h-4.4v4.414h4.4z"/><path fill="#000" d="M189.2 70.62h-4.4v4.414h4.4zm4.4 4.414h-4.4v4.414h4.4zm4.4 4.414h-4.4v4.414h4.4zm4.4 4.414H198v4.414h4.4zm4.4 0h-4.4v4.414h4.4zm4.4-4.414h-4.4v4.414h4.4zm4.4 0h-4.4v4.414h4.4zm4.4 0h-4.4v4.414h4.4zm4.4-4.414H220v4.414h4.4zm8.8 0h-4.4v4.414h4.4zm4.4-4.414h-4.4v4.414h4.4zm4.4 0h-4.4v4.414h4.4zm4.4-4.413H242v4.413h4.4zm4.4 0h-4.4v4.413h4.4z"/><path fill="#000" d="M255.2 66.207h-4.4v4.413h4.4zm-4.4-4.414h-4.4v4.414h4.4zm-4.4-4.414H242v4.414h4.4zm-4.4 0h-4.4v4.414h4.4zm-4.4-4.414h-4.4v4.414h4.4zm-4.4 0h-4.4v4.414h4.4z"/><path fill="#000" d="M228.8 48.552h-4.4v4.414h4.4zm4.4-4.414h-4.4v4.413h4.4zm4.4 0h-4.4v4.413h4.4zm4.4-4.414h-4.4v4.414h4.4zm4.4-4.414H242v4.414h4.4zm4.4 0h-4.4v4.414h4.4zm-4.4-4.413H242v4.413h4.4zm-4.4 0h-4.4v4.413h4.4zm-4.4 0h-4.4v4.413h4.4zm-4.4-4.415h-4.4v4.414h4.4zm-4.4 0h-4.4v4.414h4.4zm-4.4-4.413H220v4.414h4.4zm-4.4 0h-4.4v4.414h4.4zm-4.4 0h-4.4v4.414h4.4zm-4.4-4.414h-4.4v4.414h4.4z"/><path fill="#000" d="M206.8 17.655h-4.4v4.414h4.4zm-4.4-4.414H198v4.414h4.4zm-4.4 4.414h-4.4v4.414h4.4zm-4.4 4.414h-4.4v4.414h4.4zm-4.4 0h-4.4v4.414h4.4z"/><path fill="#000" d="M184.8 26.482h-4.4v4.414h4.4zm-4.4 4.415H176v4.413h4.4zm4.4 0h-4.4v4.413h4.4zm4.4 4.413h-4.4v4.414h4.4zm4.4 0h-4.4v4.414h4.4zm4.4 0h-4.4v4.414h4.4zm4.4 4.414H198v4.414h4.4zm4.4 0h-4.4v4.414h4.4z"/><path fill="#000" d="M211.2 39.724h-4.4v4.414h4.4zm4.4 4.414h-4.4v4.413h4.4zm4.4 0h-4.4v4.413h4.4zm4.4 4.414H220v4.414h4.4zm-4.4 4.413h-4.4v4.414h4.4zm-4.4 0h-4.4v4.414h4.4zm-4.4 0h-4.4v4.414h4.4z"/><path fill="#000" d="M206.8 57.379h-4.4v4.414h4.4zm-4.4 0H198v4.414h4.4zm-4.4 0h-4.4v4.414h4.4zm-4.4 4.414h-4.4v4.414h4.4zm-4.4 0h-4.4v4.414h4.4z"/><path fill="#000" d="M184.8 61.793h-4.4v4.414h4.4zM176 70.62h4.4v-4.413H176zm0 4.414h4.4V70.62H176z"/><path fill="#000" d="M176 79.448h4.4v-4.414H176zm0 4.414h4.4v-4.414H176zm0 4.414h4.4v-4.414H176zm0 4.414h4.4v-4.414H176zm0 4.414h4.4V92.69H176z"/><path fill="#000" d="M176 101.517h4.4v-4.414H176zm0 4.414h4.4v-4.414H176zm0 4.414h4.4v-4.414H176zm0 4.413h4.4v-4.413H176zm0 4.414h4.4v-4.413H176zm0 4.414h4.4v-4.414H176zm0 4.414h4.4v-4.414H176zm-4.4 0h4.4v-4.414h-4.4zm-4.4 0h4.4v-4.414h-4.4zm-4.4-4.414h4.4v-4.414h-4.4zm-4.4 0h4.4v-4.414h-4.4zm-4.4-4.414h4.4v-4.413H154zm-4.4 0h4.4v-4.413h-4.4zm-4.4 0h4.4v-4.413h-4.4zm-4.4-4.414h4.4v-4.413h-4.4zm-4.4 0h4.4v-4.413h-4.4zm-4.4 0h4.4v-4.413H132zm-4.4-4.413h4.4v-4.414h-4.4zm0-4.414h4.4v-4.414h-4.4zm0-4.414h4.4v-4.414h-4.4z"/><path fill="#000" d="M127.6 97.104h4.4V92.69h-4.4zm0-4.414h4.4v-4.414h-4.4zm0-4.414h4.4v-4.414h-4.4zm0-4.414h4.4v-4.414h-4.4zm0-4.414h4.4v-4.414h-4.4zm44-4.414h4.4V70.62h-4.4zm-4.4 0h4.4V70.62h-4.4zm-4.4 4.414h4.4v-4.414h-4.4zm-4.4 4.414h4.4v-4.414h-4.4zm-4.4 4.414h4.4v-4.414H154zm-4.4 0h4.4v-4.414h-4.4zm-4.4-4.414h4.4v-4.414h-4.4z"/><path fill="#000" d="M140.8 83.862h4.4v-4.414h-4.4zm-4.4 0h4.4v-4.414h-4.4zm-4.4-4.414h4.4v-4.414H132zm-8.8 0h4.4v-4.414h-4.4zm-4.4-4.414h4.4V70.62h-4.4z"/><path fill="#000" d="M114.4 75.034h4.4V70.62h-4.4zM110 70.62h4.4v-4.413H110zm-4.4 0h4.4v-4.413h-4.4z"/><path fill="#000" d="M101.2 70.62h4.4v-4.413h-4.4zm4.4-4.413h4.4v-4.414h-4.4zm4.4-4.414h4.4v-4.414H110zm4.4 0h4.4v-4.414h-4.4zm4.4-4.414h4.4v-4.414h-4.4zm4.4 0h4.4v-4.414h-4.4zm4.4-4.414h4.4v-4.414h-4.4zm-4.4-4.413h4.4v-4.414h-4.4zm-4.4 0h4.4v-4.414h-4.4zm-4.4-4.414h4.4v-4.414h-4.4zm-4.4-4.414h4.4V35.31H110zm-4.4 0h4.4V35.31h-4.4zm4.4-4.414h4.4v-4.414H110zm4.4 0h4.4v-4.414h-4.4zm4.4 0h4.4v-4.414h-4.4zm4.4-4.413h4.4v-4.414h-4.4z"/><path fill="#000" d="M127.6 30.897h4.4v-4.414h-4.4zm4.4-4.415h4.4V22.07H132zm4.4 0h4.4V22.07h-4.4zm4.4 0h4.4V22.07h-4.4zm4.4-4.413h4.4v-4.414h-4.4zm4.4 0h4.4v-4.414h-4.4zm4.4-4.414h4.4V13.24H154zm4.4 4.414h4.4v-4.414h-4.4zm4.4 4.413h4.4V22.07h-4.4z"/><path fill="#000" d="M167.2 26.482h4.4V22.07h-4.4zm4.4 4.415h4.4v-4.414h-4.4zm4.4 4.413h4.4v-4.414H176z"/><path fill="#000" d="M171.6 35.31h4.4v-4.414h-4.4zm-4.4 4.414h4.4V35.31h-4.4z"/><path fill="#000" d="M162.8 39.724h4.4V35.31h-4.4zm-4.4 0h4.4V35.31h-4.4zm-4.4 4.414h4.4v-4.414H154zm-4.4 0h4.4v-4.414h-4.4zm-4.4 0h4.4v-4.414h-4.4zm-4.4 4.414h4.4v-4.414h-4.4zm-4.4 0h4.4v-4.414h-4.4zm-4.4 4.413h4.4v-4.414H132zm4.4 4.414h4.4v-4.414h-4.4zm4.4 0h4.4v-4.414h-4.4zm4.4 0h4.4v-4.414h-4.4zm4.4 4.414h4.4v-4.414h-4.4zm4.4 0h4.4v-4.414H154zm4.4 0h4.4v-4.414h-4.4zm4.4 4.414h4.4v-4.414h-4.4z"/><path fill="#000" d="M167.2 66.207h4.4v-4.414h-4.4zm4.4 0h4.4v-4.414h-4.4z"/><path fill="#00ced4" d="M268.4 8.827V4.414h-13.2v4.413h-4.4V22.07h4.4v4.414h13.2V22.07h4.4V8.827z"/><path fill="#000" d="M250.8 8.828h-4.4v4.413h4.4zm4.4-4.414h-4.4v4.413h4.4zM259.6 0h-4.4v4.414h4.4zm4.4 0h-4.4v4.414h4.4zm4.4 0H264v4.414h4.4zm4.4 4.414h-4.4v4.413h4.4zm4.4 4.414h-4.4v4.413h4.4zm0 4.413h-4.4v4.414h4.4zm0 4.414h-4.4v4.414h4.4zm-4.4 4.414h-4.4v4.414h4.4zm-4.4 4.414H264v4.414h4.4zm-4.4 0h-4.4v4.414h4.4zm-4.4 0h-4.4v4.414h4.4zm-4.4-4.414h-4.4v4.414h4.4zm-4.4-4.414h-4.4v4.414h4.4zm0-4.414h-4.4v4.414h4.4z"/><path fill="#00ced4" d="M79.2 26.483v-4.414H66v4.414h-4.4v13.241H66v4.414h13.2v-4.414h4.4V26.483z"/><path fill="#000" d="M61.6 26.483h-4.4v4.414h4.4zm4.4-4.414h-4.4v4.414H66zm4.4-4.414H66v4.414h4.4z"/><path fill="#000" d="M74.8 17.655h-4.4v4.414h4.4zm4.4 0h-4.4v4.414h4.4z"/><path fill="#000" d="M83.6 22.069h-4.4v4.414h4.4zm4.4 4.414h-4.4v4.414H88zm0 4.414h-4.4v4.413H88zm0 4.413h-4.4v4.414H88zm-4.4 4.414h-4.4v4.414h4.4zm-4.4 4.414h-4.4v4.414h4.4zm-4.4 0h-4.4v4.414h4.4z"/><path fill="#000" d="M70.4 44.138H66v4.414h4.4zM66 39.724h-4.4v4.414H66zm-4.4-4.414h-4.4v4.414h4.4zm0-4.413h-4.4v4.413h4.4z"/><path fill="#00ced4" d="M220 8.827h-4.4v8.828h8.8V8.827z"/><path fill="#000" d="M215.6 8.827h-4.4v4.414h4.4zm4.4-4.413h-4.4v4.413h4.4zm4.4 0H220v4.413h4.4zm4.4 4.413h-4.4v4.414h4.4zm0 4.414h-4.4v4.414h4.4zm-4.4 4.414H220v4.414h4.4zm-4.4 0h-4.4v4.414h4.4zm-4.4-4.414h-4.4v4.414h4.4z"/><path fill="#00ced4" d="M127.6 4.414h-4.4v8.827h8.8V4.414z"/><path fill="#000" d="M123.2 4.414h-4.4v4.413h4.4zM127.6 0h-4.4v4.414h4.4zm4.4 0h-4.4v4.414h4.4zm4.4 4.414H132v4.413h4.4zm0 4.414H132v4.413h4.4zm-4.4 4.413h-4.4v4.414h4.4zm-4.4 0h-4.4v4.414h4.4zm-4.4-4.413h-4.4v4.413h4.4zm70.4 26.482h-4.4v4.414h4.4zm4.4-4.413h-4.4v4.413h4.4zm4.4 0H198v4.413h4.4zm4.4 4.413h-4.4v4.414h4.4z"/><path fill="#000" d="M206.8 39.724h-4.4v4.414h4.4zm-4.4 4.414H198v4.413h4.4zm-4.4 0h-4.4v4.413h4.4zm-4.4-4.414h-4.4v4.414h4.4z"/><path fill="#00ced4" d="M198 35.31h-4.4v8.828h8.8V35.31z"/><path fill="#000" d="M299.2 22.069h-4.4v4.414h4.4zm-4.4 4.413h-4.4v4.414h4.4zm-4.4 4.415H286v4.413h4.4zm0 4.413H286v4.414h4.4z"/><path fill="#000" d="M290.4 39.724H286v4.414h4.4zm13.2-22.069h-4.4v4.414h4.4zm4.4-4.414h-4.4v4.414h4.4zm4.4 0H308v4.414h4.4zm4.4 0h-4.4v4.414h4.4zm17.6 13.241h4.4V22.07h-4.4zm4.4 4.415h4.4v-4.414h-4.4zm4.4 4.413h4.4v-4.414h-4.4zm0 4.414h4.4V35.31h-4.4zm0 4.414h4.4v-4.414h-4.4zM330 22.069h4.4v-4.414H330zm-4.4-4.414h4.4V13.24h-4.4zm-4.4 0h4.4V13.24h-4.4zm-4.4 0h4.4V13.24h-4.4zm17.6 48.552h4.4v-4.414h-4.4zm4.4-4.414h4.4v-4.414h-4.4zm4.4-4.414h4.4v-4.414h-4.4z"/><path fill="#000" d="M343.2 52.965h4.4v-4.414h-4.4zm0-4.414h4.4v-4.413h-4.4zM330 70.62h4.4v-4.413H330zm-4.4 4.414h4.4V70.62h-4.4zm-4.4 0h4.4V70.62h-4.4zm-4.4 0h4.4V70.62h-4.4zm-17.6-13.241h-4.4v4.414h4.4zm-4.4-4.414h-4.4v4.414h4.4zm-4.4-4.414H286v4.414h4.4zm0-4.414H286v4.414h4.4zm0-4.413H286v4.413h4.4zm13.2 22.069h-4.4v4.413h4.4zm4.4 4.413h-4.4v4.414h4.4zm4.4 0H308v4.414h4.4zm4.4 0h-4.4v4.414h4.4z"/><path fill="#00ced4" d="M343.2 30.887V57.38h-4.409v4.42H334.4v4.406h-4.409v4.422H303.6v-4.422h-4.409v-4.405H294.8v-4.423h-4.409V30.887h4.409v-4.405h4.391V22.06h4.409v-4.405h26.391v4.405h4.409v4.422h4.391v4.405z"/><path fill="#000" d="M13.2 52.965H8.8v4.414h4.4zm-4.4 4.414H4.4v4.414h4.4zm-4.4 4.414H0v4.414h4.4zm0 4.414H0v4.413h4.4zm0 4.413H0v4.414h4.4zm13.2-22.069h-4.4v4.414h4.4zm4.4-4.413h-4.4v4.413H22zm4.4 0H22v4.413h4.4zm4.4 0h-4.4v4.413h4.4zm17.6 13.241h4.4v-4.414h-4.4zm4.4 4.414h4.4v-4.414h-4.4zm4.4 4.414h4.4v-4.414h-4.4zm0 4.413h4.4v-4.413h-4.4zm0 4.414h4.4V70.62h-4.4zM44 52.965h4.4v-4.414H44zm-4.4-4.414H44v-4.413h-4.4zm-4.4 0h4.4v-4.413h-4.4zm-4.4 0h4.4v-4.413h-4.4zm17.6 48.552h4.4v-4.414h-4.4zm4.4-4.413h4.4v-4.414h-4.4zm4.4-4.415h4.4v-4.413h-4.4zm0-4.413h4.4v-4.414h-4.4z"/><path fill="#000" d="M57.2 79.448h4.4v-4.414h-4.4zM44 101.517h4.4v-4.414H44zm-4.4 4.414H44v-4.414h-4.4zm-4.4 0h4.4v-4.414h-4.4zm-4.4 0h4.4v-4.414h-4.4zM13.2 92.69H8.8v4.413h4.4zm-4.4-4.415H4.4v4.414h4.4zm-4.4-4.413H0v4.414h4.4zm0-4.414H0v4.414h4.4z"/><path fill="#000" d="M4.4 75.034H0v4.414h4.4zm13.2 22.069h-4.4v4.414h4.4zm4.4 4.414h-4.4v4.414H22zm4.4 0H22v4.414h4.4zm4.4 0h-4.4v4.414h4.4z"/><path fill="#00ced4" d="M57.2 61.784v26.491h-4.41v4.423H48.4v4.405h-4.41v4.423H17.6v-4.423h-4.41v-4.405H8.8v-4.423H4.39V61.784H8.8v-4.405h4.391v-4.423H17.6v-4.405h26.39v4.405h4.41v4.423h4.391v4.405z"/><path fill="#000" d="M338.8 83.862h4.4v-4.414h-4.4zm4.4-4.414h4.4v-4.414h-4.4zm4.4-4.414h4.4V70.62h-4.4zm4.4 0h4.4V70.62H352zm-13.2 13.242h4.4v-4.414h-4.4zm35.2-8.828h-4.4v4.414h4.4zm-4.4-4.414h-4.4v4.414h4.4zm-4.4-4.414h-4.4v4.414h4.4zm-4.4 0h-4.4v4.414h4.4zM374 83.862h-4.4v4.414h4.4zm0 8.828h-4.4v4.413h4.4zm-4.4 4.414h-4.4v4.413h4.4zm-4.4 4.413h-4.4v4.414h4.4zm-4.4 0h-4.4v4.414h4.4zM374 88.276h-4.4v4.414h4.4zm-35.2 8.828h4.4V92.69h-4.4zm4.4 4.413h4.4v-4.414h-4.4zm4.4 4.414h4.4v-4.414h-4.4zm4.4 0h4.4v-4.414H352zM338.8 92.69h4.4v-4.414h-4.4z"/><path fill="#00ced4" d="M369.591 79.44v17.654H365.2v4.414h-17.6v-4.414h-4.391V79.44h4.391v-4.405h17.6v4.405z"/></g><defs><clipPath id="clip0_1840_67723"><path fill="#fff" d="M0 0h374v128H0z"/></clipPath></defs></svg>