<svg width="150" height="49" viewBox="0 0 150 49" fill="none" xmlns="http://www.w3.org/2000/svg">
<path d="M12.9751 45.0808L0 37.5807V22.5784L12.973 30.0806L12.9751 45.0808Z" fill="#BFC0C0"/>
<path d="M52.7122 22.5024V7.50008L39.737 0L0 22.5802L12.973 30.0803V45.0804L52.7122 22.5024Z" fill="url(#paint0_linear_1860_36784)"/>
<path d="M21.0122 29.5529V12.9511L35.371 4.64917L67.7387 23.4102V40.0119L53.3799 48.3117L21.0122 29.5529Z" fill="url(#paint1_linear_1860_36784)"/>
<path d="M21.0122 12.9687V29.5705L35.371 37.8724L49.7298 29.5705V12.9687L35.371 4.66675L21.0122 12.9687Z" fill="white"/>
<path d="M86.2846 14.542C86.8026 14.4037 87.1976 14.1508 87.4567 13.7898C87.7178 13.4267 87.8495 13.0139 87.8495 12.5622C87.8495 12.1688 87.7545 11.81 87.5689 11.4923C87.3833 11.1767 87.1005 10.9217 86.7292 10.7358C86.3536 10.5477 85.8895 10.4526 85.3521 10.4526H82.751V17.4556H84.0029V14.6544H84.8318L86.4162 17.4556H87.8625L86.1658 14.5744L86.2867 14.542H86.2846ZM84.0029 13.7596V11.4577H85.3002C85.7147 11.4577 86.0298 11.5593 86.2392 11.756C86.4508 11.9548 86.5565 12.2358 86.5565 12.5924C86.5565 12.9491 86.4508 13.2408 86.2414 13.4483C86.032 13.6537 85.7147 13.7596 85.3002 13.7596H84.0029Z" fill="black"/>
<path d="M90.0406 17.4534H91.2926V11.4252H93.2051V10.4504H88.126V11.4252H90.0406V17.4534Z" fill="black"/>
<path d="M97.8329 13.8523C97.5436 13.7183 97.1637 13.5821 96.7039 13.4459C96.3607 13.3422 96.0887 13.2492 95.8966 13.1693C95.698 13.0871 95.5297 12.9769 95.3937 12.8407C95.2491 12.6959 95.1757 12.5122 95.1757 12.2939C95.1757 11.9913 95.2706 11.7557 95.4606 11.5936C95.6441 11.4358 95.8923 11.3537 96.1967 11.3537C96.5399 11.3537 96.8205 11.4423 97.0342 11.6174C97.2263 11.7752 97.3407 11.974 97.3731 12.2096H98.7697C98.7049 11.6433 98.4632 11.1916 98.0487 10.8695C97.604 10.5237 97.0169 10.3486 96.3003 10.3486C95.8211 10.3486 95.3915 10.4308 95.0202 10.5929C94.6554 10.7528 94.3662 10.9862 94.1655 11.2845C93.9647 11.5828 93.8632 11.9394 93.8632 12.3436C93.8632 12.7737 93.9625 13.1196 94.1568 13.3724C94.3554 13.6318 94.5972 13.8263 94.8735 13.9517C95.1606 14.0835 95.5383 14.2175 95.9981 14.3537C96.3434 14.451 96.6176 14.5396 96.814 14.6196C97.0212 14.7039 97.1961 14.8206 97.3364 14.9654C97.4832 15.121 97.5587 15.3199 97.5587 15.5555C97.5587 15.8451 97.4508 16.0828 97.2371 16.2622C97.0277 16.4373 96.7428 16.5259 96.3845 16.5259C96.0261 16.5259 95.7498 16.4308 95.5448 16.2428C95.357 16.072 95.2447 15.8451 95.208 15.5663H93.8481C93.8697 15.9445 93.9841 16.2774 94.187 16.5605C94.4094 16.8674 94.7159 17.1073 95.1001 17.2716C95.4865 17.4359 95.9312 17.5202 96.4168 17.5202C96.9284 17.5202 97.3731 17.4251 97.7422 17.237C98.1091 17.049 98.3898 16.7961 98.5797 16.4849C98.7697 16.1715 98.8646 15.8278 98.8646 15.4625C98.8646 15.0389 98.7632 14.6952 98.5646 14.438C98.3617 14.1765 98.1178 13.9776 97.8372 13.8479L97.8329 13.8523Z" fill="black"/>
<path d="M102.886 10.4504H101.539V17.4534H102.886V10.4504Z" fill="black"/>
<path d="M112.327 10.8092C111.785 10.5023 111.174 10.3467 110.515 10.3467C109.857 10.3467 109.255 10.5023 108.709 10.8092C108.163 11.1161 107.724 11.5463 107.407 12.0888C107.088 12.6313 106.926 13.2516 106.926 13.9303C106.926 14.609 107.088 15.2401 107.407 15.7826C107.727 16.3251 108.165 16.7552 108.709 17.0622C109.253 17.3691 109.861 17.5247 110.515 17.5247C111.17 17.5247 111.776 17.3691 112.322 17.0622C112.868 16.7552 113.304 16.3251 113.619 15.7826C113.935 15.2401 114.094 14.6155 114.094 13.9303C114.094 13.2451 113.935 12.6291 113.619 12.0866C113.304 11.5441 112.868 11.114 112.327 10.8071V10.8092ZM112.514 15.2401C112.322 15.6183 112.05 15.9145 111.707 16.1176C111.364 16.3208 110.964 16.4246 110.518 16.4246C110.071 16.4246 109.669 16.3208 109.322 16.1176C108.974 15.9145 108.702 15.6183 108.508 15.2401C108.316 14.864 108.221 14.4231 108.221 13.9303C108.221 13.4375 108.318 12.9987 108.51 12.6248C108.702 12.2487 108.976 11.9569 109.324 11.7559C109.669 11.5571 110.071 11.4555 110.518 11.4555C110.964 11.4555 111.364 11.5571 111.707 11.7559C112.05 11.9569 112.322 12.2487 112.514 12.6248C112.706 12.9966 112.804 13.4353 112.804 13.9303C112.804 14.4253 112.706 14.864 112.516 15.2401H112.514Z" fill="black"/>
<path d="M118.566 14.542C119.084 14.4037 119.479 14.1508 119.738 13.7898C120 13.4267 120.131 13.0139 120.131 12.5622C120.131 12.1688 120.036 11.81 119.851 11.4923C119.665 11.1767 119.382 10.9217 119.011 10.7358C118.635 10.5477 118.171 10.4526 117.634 10.4526H115.033V17.4556H116.285V14.6544H117.114L118.698 17.4556H120.144L118.448 14.5744L118.568 14.542H118.566ZM116.285 13.7596V11.4577H117.582C117.996 11.4577 118.312 11.5593 118.521 11.756C118.733 11.9548 118.838 12.2358 118.838 12.5924C118.838 12.9491 118.733 13.2408 118.523 13.4483C118.314 13.6537 117.996 13.7596 117.582 13.7596H116.285Z" fill="black"/>
<path d="M122.452 14.3732H124.87V13.4179H122.452V11.4251H125.178V10.4417H121.2V17.4532H125.178V16.4676H122.452V14.3732Z" fill="black"/>
<path d="M135.341 10.4504H134.089V17.4534H138.029V16.4981H135.341V10.4504Z" fill="#666666"/>
<path d="M149.629 14.5269C149.383 14.2178 149.068 14.0233 148.688 13.9541L148.316 13.8849L148.677 13.7726C149.027 13.6623 149.312 13.4721 149.521 13.2063C149.728 12.9426 149.834 12.6097 149.834 12.2142C149.834 11.877 149.748 11.5722 149.577 11.3064C149.407 11.0427 149.15 10.8309 148.815 10.6817C148.474 10.5304 148.064 10.4526 147.593 10.4526H144.725V17.4556H147.727C148.198 17.4556 148.61 17.3756 148.953 17.2178C149.292 17.0601 149.553 16.8418 149.732 16.5673C149.912 16.2928 150 15.9685 150 15.6033C150 15.2012 149.875 14.8403 149.629 14.529V14.5269ZM145.977 11.4274H147.388C147.753 11.4274 148.04 11.5139 148.241 11.6868C148.448 11.8619 148.552 12.1126 148.552 12.4282C148.552 12.7437 148.446 12.9923 148.241 13.1652C148.04 13.3338 147.753 13.4181 147.388 13.4181H145.977V11.4274ZM148.401 16.1998C148.189 16.3792 147.893 16.47 147.522 16.47H145.977V14.3432H147.49C147.861 14.3432 148.161 14.4383 148.383 14.6285C148.61 14.8208 148.724 15.091 148.724 15.426C148.724 15.761 148.614 16.0161 148.398 16.1998H148.401Z" fill="#666666"/>
<path d="M107.332 10.4504H105.84L103.054 13.9325L105.84 17.4534H107.412L104.405 13.9325L107.332 10.4504Z" fill="black"/>
<path d="M76.1729 17.4532H77.4594L79.0675 10.4417H77.8716L76.1729 17.4532Z" fill="black"/>
<path d="M81.9634 17.4532L80.2646 10.4417H79.0688L80.0833 14.8682H79.0105L78.8076 15.7609H80.2884L80.6748 17.4532H81.9634Z" fill="black"/>
<path d="M125.79 17.4532H127.079L128.687 10.4417H127.491L125.79 17.4532Z" fill="black"/>
<path d="M131.582 17.4532L129.881 10.4417H128.687L129.702 14.8682H128.629L128.426 15.7609H129.905L130.293 17.4532H131.582Z" fill="black"/>
<path d="M138.472 17.4532H139.76L141.366 10.4417H140.17L138.472 17.4532Z" fill="#666666"/>
<path d="M144.26 17.4532L142.561 10.4417H141.365L142.38 14.8682H141.309L141.104 15.7609H142.585L142.973 17.4532H144.26Z" fill="#666666"/>
<path d="M113.675 26.9135H118.105V22.0396H111.869V23.6239H116.3V25.3314H111.869V30.2053H118.228V28.6232H113.675V26.9135Z" fill="black"/>
<path d="M86.6586 22.0396H84.854V30.1945H86.6586V26.4964H88.7308V24.9142H86.6586V22.0396Z" fill="black"/>
<path d="M121.771 22.0396H119.964V30.1945H121.771V22.0396Z" fill="black"/>
<path d="M138.591 26.9135H142.004V22.0396H136.784V23.6239H140.197V25.3314H136.784V30.2053H142.127V28.6232H138.591V26.9135Z" fill="black"/>
<path d="M79.727 22.146C77.7671 22.146 76.1719 23.7433 76.1719 25.7058C76.1719 27.6684 77.7671 29.2657 79.727 29.2657C81.687 29.2657 83.2822 27.6684 83.2822 25.7058C83.2822 23.7433 81.687 22.146 79.727 22.146ZM79.727 27.5992C78.6844 27.5992 77.834 26.7498 77.834 25.7037C77.834 24.6575 78.6823 23.8081 79.727 23.8081C80.7718 23.8081 81.6201 24.6575 81.6201 25.7037C81.6201 26.7498 80.7718 27.5992 79.727 27.5992Z" fill="black"/>
<path d="M133.554 22.0396H131.747V30.1945H133.554V26.4964H135.626V24.9142H133.554V22.0396Z" fill="black"/>
<path d="M146.94 30.1945H148.747V22.0396H146.94V24.9142H145.559V22.0396H143.754V30.1945H145.559V26.4964H146.94V30.1945Z" fill="black"/>
<path d="M126.623 22.146C124.663 22.146 123.067 23.7433 123.067 25.7058C123.067 27.6684 124.663 29.2657 126.623 29.2657C128.583 29.2657 130.178 27.6684 130.178 25.7058C130.178 23.7433 128.583 22.146 126.623 22.146ZM126.623 27.5992C125.58 27.5992 124.729 26.7498 124.729 25.7037C124.729 24.6575 125.578 23.8081 126.623 23.8081C127.667 23.8081 128.516 24.6575 128.516 25.7037C128.516 26.7498 127.667 27.5992 126.623 27.5992Z" fill="black"/>
<path d="M92.2511 26.9092H97.7856V25.327H92.2511V23.6239H97.7856V22.0396H90.4443V30.1945H97.9087V28.6124H92.2511V26.9092Z" fill="black"/>
<path d="M107.526 25.6858H101.694V27.268H107.526V30.1945H109.333V22.0396H101.487V23.6239H107.526V25.6858Z" fill="black"/>
<path d="M98.9615 32.4712H89.3926V34.0533H98.9615V32.4712Z" fill="black"/>
<path d="M105.813 29.564H104.006V32.4711H101.027V34.0532H109.862V32.4711H105.813V29.564Z" fill="black"/>
<path d="M143.597 31.5369H141.79V37.9649H148.747V31.5369H146.94V33.1125H143.597V31.5369ZM146.94 34.6947V36.3806H143.597V34.6947H146.94Z" fill="black"/>
<defs>
<linearGradient id="paint0_linear_1860_36784" x1="12.6557" y1="29.3368" x2="42.9711" y2="14.3381" gradientUnits="userSpaceOnUse">
<stop stop-color="#F6AB00"/>
<stop offset="1" stop-color="#B94F7F"/>
</linearGradient>
<linearGradient id="paint1_linear_1860_36784" x1="68.2762" y1="40.12" x2="21.8371" y2="13.6888" gradientUnits="userSpaceOnUse">
<stop stop-color="#4694D1"/>
<stop offset="1" stop-color="#89137D"/>
</linearGradient>
</defs>
</svg>
