<svg width="73" height="75" viewBox="0 0 73 75" fill="none" xmlns="http://www.w3.org/2000/svg">
<path d="M14.9702 45.9817L1.71948 38.3325V23.0305L14.9702 30.6815V45.9817Z" fill="#BFC0C0"/>
<path d="M55.5567 22.9529V7.65097L42.3042 0L1.71948 23.0305L14.9702 30.6815V45.9817L55.5567 22.9529Z" fill="url(#paint0_linear_1741_2)"/>
<path d="M23.179 30.1436V13.2085L37.8442 4.74268L70.9014 23.8772V40.8105L56.2379 49.2781L23.179 30.1436Z" fill="url(#paint1_linear_1741_2)"/>
<path d="M23.179 13.2278V30.1612L37.8442 38.6288L52.5112 30.1612V13.2278L37.8442 4.76025L23.179 13.2278Z" fill="white"/>
<path d="M9.94716 59.8039C10.4569 59.6681 10.8449 59.4194 11.1006 59.0649C11.3581 58.7086 11.4886 58.3029 11.4886 57.8603C11.4886 57.474 11.3952 57.1195 11.2135 56.8091C11.0318 56.4987 10.7532 56.2482 10.3863 56.0648C10.0159 55.8796 9.56091 55.7861 9.0318 55.7861H6.47266V62.6646H7.70373V59.9115H8.51856L10.0777 62.6646H11.501L9.83076 59.8356L9.94893 59.8039H9.94716ZM7.70196 59.0349V56.7738H8.97889C9.3863 56.7738 9.69672 56.8726 9.90307 57.0684C10.1094 57.2641 10.2152 57.541 10.2152 57.8902C10.2152 58.2395 10.1112 58.5287 9.90483 58.7315C9.69848 58.9344 9.38807 59.0367 8.97889 59.0367H7.70196V59.0349Z" fill="black"/>
<path d="M13.6404 62.6646H14.8715V56.7438H16.7551V55.7861H11.7585V56.7438H13.6404V62.6646Z" fill="black"/>
<path d="M21.3035 59.1283C21.0195 58.996 20.6456 58.8619 20.1923 58.7279C19.8537 58.6256 19.5874 58.5356 19.3987 58.4563C19.2029 58.3752 19.0371 58.2658 18.9031 58.1335C18.7602 57.9924 18.6879 57.8108 18.6879 57.5974C18.6879 57.3011 18.7814 57.0682 18.9683 56.9095C19.15 56.7543 19.3934 56.6749 19.6914 56.6749C20.0283 56.6749 20.3052 56.7614 20.5151 56.9342C20.7038 57.0894 20.8149 57.2852 20.8484 57.5162H22.2206C22.1571 56.9589 21.919 56.5162 21.5116 56.1987C21.0742 55.8583 20.4957 55.6873 19.792 55.6873C19.3211 55.6873 18.8978 55.7684 18.5344 55.9271C18.1746 56.0841 17.8924 56.3134 17.6931 56.6079C17.4956 56.9025 17.3951 57.2517 17.3951 57.6485C17.3951 58.07 17.4921 58.4104 17.6843 58.6591C17.8801 58.9131 18.1164 59.1053 18.388 59.2288C18.6702 59.3575 19.0424 59.4916 19.4939 59.6239C19.8325 59.7191 20.1041 59.8073 20.2964 59.8849C20.501 59.966 20.6721 60.0824 20.8096 60.2253C20.9542 60.377 21.0283 60.5727 21.0283 60.8055C21.0283 61.0895 20.9225 61.3223 20.7126 61.4987C20.508 61.6715 20.2258 61.7579 19.8731 61.7579C19.5203 61.7579 19.2487 61.6645 19.0459 61.481C18.8625 61.3135 18.7514 61.0913 18.7161 60.8179H17.3774C17.3986 61.1883 17.5097 61.5181 17.7108 61.795C17.9295 62.0966 18.2311 62.3312 18.6085 62.4934C18.9895 62.6557 19.4251 62.7386 19.9031 62.7386C20.4057 62.7386 20.8449 62.6451 21.2065 62.4599C21.5663 62.2765 21.8432 62.0278 22.0301 61.7209C22.2153 61.4123 22.3105 61.0754 22.3105 60.7156C22.3105 60.2994 22.2118 59.9625 22.016 59.7103C21.8167 59.4528 21.5768 59.2588 21.3017 59.13L21.3035 59.1283Z" fill="black"/>
<path d="M26.2757 55.7861H24.9512V62.6646H26.2757V55.7861Z" fill="black"/>
<path d="M35.5632 56.1388C35.0288 55.8372 34.4309 55.6855 33.7819 55.6855C33.1328 55.6855 32.542 55.839 32.0058 56.1388C31.4696 56.4404 31.0393 56.8637 30.7254 57.3963C30.4114 57.929 30.2527 58.5375 30.2527 59.2059C30.2527 59.8744 30.4114 60.4934 30.7254 61.0261C31.0393 61.5587 31.4696 61.982 32.0058 62.2818C32.542 62.5834 33.1399 62.7351 33.7819 62.7351C34.4239 62.7351 35.0218 62.5817 35.5579 62.2818C36.0941 61.9802 36.5227 61.5587 36.8331 61.0261C37.1435 60.4934 37.3005 59.8796 37.3005 59.2059C37.3005 58.5322 37.1435 57.929 36.8331 57.3963C36.5227 56.8637 36.0941 56.4404 35.5615 56.1406L35.5632 56.1388ZM35.7466 60.4934C35.5579 60.8656 35.2898 61.1548 34.953 61.3559C34.6161 61.5552 34.2228 61.6575 33.7819 61.6575C33.3409 61.6575 32.9459 61.5552 32.6055 61.3559C32.2651 61.1548 31.9952 60.8656 31.8065 60.4934C31.6178 60.1248 31.5226 59.6909 31.5226 59.2059C31.5226 58.7209 31.6178 58.2905 31.8065 57.9237C31.9952 57.5551 32.2651 57.2676 32.6072 57.0701C32.9476 56.8743 33.3427 56.7738 33.7819 56.7738C34.221 56.7738 34.6143 56.8725 34.953 57.0701C35.2916 57.2676 35.5579 57.5551 35.7484 57.9219C35.9371 58.287 36.0324 58.7191 36.0324 59.2041C36.0324 59.6892 35.9371 60.123 35.7484 60.4917L35.7466 60.4934Z" fill="black"/>
<path d="M41.7011 59.8039C42.2108 59.6681 42.5988 59.4194 42.8545 59.0649C43.112 58.7086 43.2426 58.3029 43.2426 57.8603C43.2426 57.474 43.1491 57.1195 42.9674 56.8091C42.7858 56.4987 42.5071 56.2482 42.1402 56.0648C41.7699 55.8796 41.3148 55.7861 40.7857 55.7861H38.2266V62.6646H39.4576V59.9115H40.2725L41.8316 62.6646H43.2549L41.5847 59.8356L41.7028 59.8039H41.7011ZM39.4559 59.0349V56.7738H40.7328C41.1402 56.7738 41.4506 56.8726 41.657 57.0684C41.8633 57.2641 41.9692 57.541 41.9692 57.8902C41.9692 58.2395 41.8651 58.5287 41.6587 58.7315C41.4524 58.9344 41.142 59.0367 40.7328 59.0367H39.4559V59.0349Z" fill="black"/>
<path d="M45.5231 59.6399H47.9023V58.7016H45.5231V56.7439H48.2057V55.7773H44.292V62.6646H48.2057V61.6981H45.5231V59.6399Z" fill="black"/>
<path d="M58.2023 55.7861H56.9712V62.6646H60.8461V61.7281H58.2023V55.7861Z" fill="#666666"/>
<path d="M72.2574 59.7898C72.0158 59.4864 71.7054 59.2959 71.3314 59.2271L70.9664 59.1584L71.3209 59.0472C71.6648 58.9396 71.9452 58.7509 72.1516 58.4917C72.3562 58.2324 72.4602 57.9043 72.4602 57.5163C72.4602 57.1865 72.3756 56.8867 72.2062 56.6257C72.0387 56.3664 71.7865 56.16 71.4567 56.0119C71.1216 55.862 70.7177 55.7861 70.2538 55.7861H67.4319V62.6646H70.3861C70.85 62.6646 71.2556 62.5852 71.5925 62.43C71.9258 62.2766 72.1833 62.0614 72.3579 61.7916C72.5325 61.5217 72.6207 61.2025 72.6207 60.8445C72.6207 60.4494 72.499 60.0931 72.2556 59.788L72.2574 59.7898ZM68.6647 56.7438H70.0528C70.4108 56.7438 70.693 56.8302 70.8923 56.9996C71.0951 57.1724 71.1974 57.4176 71.1974 57.728C71.1974 58.0384 71.0951 58.2818 70.8905 58.4529C70.693 58.6187 70.4108 58.7015 70.051 58.7015H68.663V56.7456L68.6647 56.7438ZM71.0493 61.4318C70.8411 61.6064 70.5501 61.6963 70.185 61.6963H68.6647V59.6081H70.1551C70.5201 59.6081 70.8164 59.7016 71.0351 59.8885C71.2591 60.079 71.372 60.3418 71.372 60.6734C71.372 61.005 71.2644 61.2536 71.051 61.4335L71.0493 61.4318Z" fill="#666666"/>
<path d="M30.6496 55.7861H29.1822L26.4414 59.206L29.1822 62.6646H30.7272L27.7695 59.206L30.6496 55.7861Z" fill="black"/>
<path d="M0 62.6646H1.26811L2.84839 55.7773H1.672L0 62.6646Z" fill="black"/>
<path d="M5.69671 62.6646L4.02472 55.7773H2.84832L3.84658 60.1267H2.79188L2.59082 61.0032H4.04764L4.42861 62.6646H5.69671Z" fill="black"/>
<path d="M48.8069 62.6646H50.075L51.6553 55.7773H50.4789L48.8069 62.6646Z" fill="black"/>
<path d="M54.5038 62.6646L52.8318 55.7773H51.6554L52.6537 60.1267H51.599L51.3997 61.0032H52.8547L53.2357 62.6646H54.5038Z" fill="black"/>
<path d="M61.2817 62.6646H62.5481L64.1301 55.7773H62.9537L61.2817 62.6646Z" fill="#666666"/>
<path d="M66.9769 62.6646L65.3049 55.7773H64.1303L65.1268 60.1267H64.0739L63.8728 61.0032H65.3296L65.7106 62.6646H66.9769Z" fill="#666666"/>
<path d="M36.9425 69.2645H39.2441V66.7371H36.0024V67.5572H38.3041V68.4443H36.0024V70.9735H39.3076V70.1516H36.9425V69.2645Z" fill="black"/>
<path d="M22.9053 66.7371H21.967V70.9682H22.9053V69.0493H23.9812V68.2274H22.9053V66.7371Z" fill="black"/>
<path d="M41.1487 66.7371H40.2104V70.9682H41.1487V66.7371Z" fill="black"/>
<path d="M49.8882 69.2645H51.6608V66.7371H48.95V67.5572H50.7225V68.4443H48.95V70.9735H51.726V70.1516H49.8882V69.2645Z" fill="black"/>
<path d="M19.3039 66.7917C18.2862 66.7917 17.4573 67.6207 17.4573 68.6384C17.4573 69.656 18.2862 70.485 19.3039 70.485C20.3215 70.485 21.1505 69.656 21.1505 68.6384C21.1505 67.6207 20.3215 66.7917 19.3039 66.7917ZM19.3039 69.6225C18.7624 69.6225 18.3215 69.1816 18.3215 68.6401C18.3215 68.0987 18.7624 67.656 19.3039 67.656C19.8453 67.656 20.2863 68.0969 20.2863 68.6401C20.2863 69.1833 19.8453 69.6225 19.3039 69.6225Z" fill="black"/>
<path d="M47.2708 66.7371H46.3325V70.9682H47.2708V69.0493H48.3467V68.2274H47.2708V66.7371Z" fill="black"/>
<path d="M54.2269 70.9682H55.1652V66.7371H54.2269V68.2274H53.5091V66.7371H52.5708V70.9682H53.5091V69.0493H54.2269V70.9682Z" fill="black"/>
<path d="M43.6694 66.7917C42.6517 66.7917 41.8228 67.6207 41.8228 68.6384C41.8228 69.656 42.6517 70.485 43.6694 70.485C44.687 70.485 45.516 69.656 45.516 68.6384C45.516 67.6207 44.687 66.7917 43.6694 66.7917ZM43.6694 69.6225C43.1279 69.6225 42.687 69.1816 42.687 68.6401C42.687 68.0987 43.1279 67.656 43.6694 67.656C44.2108 67.656 44.6517 68.0969 44.6517 68.6401C44.6517 69.1833 44.2108 69.6225 43.6694 69.6225Z" fill="black"/>
<path d="M25.8101 69.2627H28.685V68.4408H25.8101V67.5572H28.685V66.7371H24.8718V70.9682H28.7502V70.1463H25.8101V69.2627Z" fill="black"/>
<path d="M33.7471 68.6278H30.717V69.4496H33.7471V70.9682H34.6854V66.7371H30.6077V67.5572H33.7471V68.6278Z" fill="black"/>
<path d="M29.2971 72.1482H24.3252V72.9701H29.2971V72.1482Z" fill="black"/>
<path d="M32.8565 70.6401H31.9164V72.1481H30.3696V72.97H34.9606V72.1481H32.8565V70.6401Z" fill="black"/>
<path d="M52.4879 71.6648H51.5496V75H55.1634V71.6648H54.2251V72.4832H52.4879V71.6648ZM54.2251 73.3033V74.1781H52.4879V73.3033H54.2251Z" fill="black"/>
<defs>
<linearGradient id="paint0_linear_1741_2" x1="14.6457" y1="29.9231" x2="45.59" y2="14.5929" gradientUnits="userSpaceOnUse">
<stop stop-color="#F6AB00"/>
<stop offset="1" stop-color="#B94F7F"/>
</linearGradient>
<linearGradient id="paint1_linear_1741_2" x1="71.4517" y1="40.9217" x2="24.052" y2="13.9087" gradientUnits="userSpaceOnUse">
<stop stop-color="#4694D1"/>
<stop offset="1" stop-color="#89137D"/>
</linearGradient>
</defs>
</svg>
