<svg width="19" height="19" viewBox="0 0 19 19" fill="none" xmlns="http://www.w3.org/2000/svg">
<path fill-rule="evenodd" clip-rule="evenodd" d="M9.2998 0C11.7663 2.98023e-08 14.1319 0.979545 15.876 2.72363C17.6201 4.46772 18.5996 6.83329 18.5996 9.2998C18.5996 11.7663 17.6201 14.1319 15.876 15.876C14.1319 17.6201 11.7663 18.5996 9.2998 18.5996C8.07859 18.5996 6.86948 18.3589 5.74121 17.8916C4.61288 17.4242 3.58722 16.7396 2.72363 15.876C1.86005 15.0124 1.17538 13.9867 0.708008 12.8584C0.240696 11.7301 0 10.521 0 9.2998C0 8.07859 0.240696 6.86948 0.708008 5.74121C1.17538 4.61288 1.86005 3.58722 2.72363 2.72363C3.58722 1.86005 4.61288 1.17538 5.74121 0.708008C6.86948 0.240696 8.07859 -2.98005e-08 9.2998 0ZM6.90332 10.2275C6.93724 10.9587 7.00934 11.6737 7.12109 12.3516C7.28071 13.3158 7.51294 14.1722 7.79395 14.876C8.07803 15.5853 8.38995 16.0835 8.68457 16.3896C8.9761 16.6908 9.18551 16.7441 9.2998 16.7441C9.41336 16.7441 9.62363 16.6914 9.91406 16.3906C10.2095 16.0848 10.5214 15.5858 10.8057 14.876L10.9092 14.6045C11.144 13.9561 11.3389 13.1952 11.4785 12.3516C11.5902 11.6739 11.662 10.9589 11.6963 10.2275H6.90332ZM13.5547 10.2275C13.5301 10.8131 13.4821 11.3973 13.4072 11.9785L13.3086 12.6553C13.1545 13.5886 12.9345 14.4631 12.6533 15.2383L12.5283 15.5645C12.4521 15.7555 12.3694 15.9398 12.2842 16.1182C13.3898 15.6342 14.3651 14.8879 15.1221 13.9375C15.9753 12.8663 16.5144 11.5822 16.6846 10.2275H13.5547ZM1.91406 10.2275C2.08417 11.5821 2.6235 12.8663 3.47656 13.9375C4.23289 14.8872 5.20772 15.6331 6.3125 16.1172C6.22505 15.9353 6.14299 15.7506 6.06934 15.5625C5.77141 14.817 5.53309 13.9663 5.36035 13.0518L5.29004 12.6553C5.15893 11.8517 5.07813 11.0408 5.04395 10.2275H1.91406ZM6.31348 2.48145C5.20824 2.96545 4.23317 3.71217 3.47656 4.66211C2.62337 5.73332 2.08423 7.01743 1.91406 8.37207H5.04492C5.08095 7.54183 5.16144 6.72388 5.29102 5.94336C5.46713 4.87672 5.73019 3.88761 6.07031 3.03516C6.14402 2.84733 6.22602 2.66307 6.31348 2.48145ZM9.2998 1.85547C9.18625 1.85547 8.97598 1.90819 8.68555 2.20898C8.39013 2.51485 8.07825 3.01385 7.79395 3.72363C7.51294 4.42736 7.28071 5.28378 7.12109 6.24805C7.00937 6.92571 6.93765 7.64068 6.90332 8.37207H11.6963C11.6636 7.66053 11.5928 6.95128 11.4785 6.24805L11.415 5.8916C11.2599 5.0721 11.0516 4.33944 10.8057 3.72363C10.5217 3.01496 10.2095 2.51591 9.91504 2.20996L9.80957 2.1084C9.5725 1.89625 9.39986 1.85547 9.2998 1.85547ZM12.2861 2.4834C12.3734 2.66447 12.4557 2.84791 12.5293 3.03516L12.6533 3.36133C12.8939 4.02575 13.09 4.76291 13.2383 5.54785L13.3086 5.94434C13.44 6.7479 13.5203 7.55874 13.5547 8.37207H16.6855C16.4801 6.73419 15.7349 5.20789 14.5635 4.03613C13.9065 3.37895 13.1332 2.8542 12.2861 2.4834Z" fill="black"/>
</svg>
