<svg width="28" height="29" viewBox="0 0 28 29" fill="none" xmlns="http://www.w3.org/2000/svg">
<path d="M26.6003 15.4591V14.0537V12.6484V11.243V9.83759H25.2003V8.4322V7.02682H23.8003V5.62143V4.21605H22.4004H21.0004V2.81066H19.6004H18.2004V1.40527H16.8004H15.4004H14.0004H12.6004H11.2004H9.80037V2.81066H8.40038H7.00038V4.21605H5.60038H4.20039V5.62143V7.02682H2.80039V8.4322V9.83759H1.40039V11.243V12.6484V14.0537V15.4591V16.8645V18.2699H2.80039V19.6753V21.0807H4.20039V22.4861V23.8914H5.60038H7.00038V25.2968H8.40038H9.80037V26.7022H11.2004H12.6004H14.0004H15.4004H16.8004H18.2004V25.2968H19.6004H21.0004V23.8914H22.4004H23.8003V22.4861V21.0807H25.2003V19.6753V18.2699H26.6003V16.8645V15.4591Z" fill="#FFFF00"/>
<path d="M15.401 0H14.001V1.40539H15.401V0Z" fill="black"/>
<path d="M16.8004 0H15.4004V1.40539H16.8004V0Z" fill="black"/>
<path d="M18.2008 0H16.8008V1.40539H18.2008V0Z" fill="black"/>
<path d="M19.6012 1.40527H18.2012V2.81066H19.6012V1.40527Z" fill="black"/>
<path d="M21.0016 1.40527H19.6016V2.81066H21.0016V1.40527Z" fill="black"/>
<path d="M22.401 2.81055H21.001V4.21593H22.401V2.81055Z" fill="black"/>
<path d="M23.8014 2.81055H22.4014V4.21593H23.8014V2.81055Z" fill="black"/>
<path d="M25.2008 4.21631H23.8008V5.62169H25.2008V4.21631Z" fill="black"/>
<path d="M25.2008 5.62158H23.8008V7.02697H25.2008V5.62158Z" fill="black"/>
<path d="M26.6012 7.02686H25.2012V8.43224H26.6012V7.02686Z" fill="black"/>
<path d="M26.6012 8.43213H25.2012V9.83751H26.6012V8.43213Z" fill="black"/>
<path d="M28.0006 9.83789H26.6006V11.2433H28.0006V9.83789Z" fill="black"/>
<path d="M28.0006 11.2432H26.6006V12.6485H28.0006V11.2432Z" fill="black"/>
<path d="M28.0006 12.6484H26.6006V14.0538H28.0006V12.6484Z" fill="black"/>
<path d="M12.601 1.40527L14.001 1.40527V-0.000112414L12.601 -0.000112414V1.40527Z" fill="black"/>
<path d="M11.2006 1.40527L12.6006 1.40527V-0.000112414L11.2006 -0.000112414V1.40527Z" fill="black"/>
<path d="M9.80117 1.40527L11.2012 1.40527V-0.000112414L9.80117 -0.000112414V1.40527Z" fill="black"/>
<path d="M8.40078 2.81055H9.80078V1.40516L8.40078 1.40516V2.81055Z" fill="black"/>
<path d="M7.00039 2.81055H8.40039V1.40516L7.00039 1.40516V2.81055Z" fill="black"/>
<path d="M5.60098 4.21631H7.00098V2.81092H5.60098V4.21631Z" fill="black"/>
<path d="M4.20059 4.21631H5.60059V2.81092H4.20059V4.21631Z" fill="black"/>
<path d="M2.80117 5.62158H4.20117V4.2162H2.80117V5.62158Z" fill="black"/>
<path d="M2.80117 7.02686H4.20117V5.62147H2.80117V7.02686Z" fill="black"/>
<path d="M1.40078 8.43213H2.80078V7.02674H1.40078L1.40078 8.43213Z" fill="black"/>
<path d="M1.40078 9.83789H2.80078V8.4325H1.40078L1.40078 9.83789Z" fill="black"/>
<path d="M0.000393391 11.2432H1.40039L1.40039 9.83778H0.000393391L0.000393391 11.2432Z" fill="black"/>
<path d="M0.000393391 12.6484H1.40039L1.40039 11.2431H0.000393391L0.000393391 12.6484Z" fill="black"/>
<path d="M0.000393391 14.0537H1.40039L1.40039 12.6483H0.000393391L0.000393391 14.0537Z" fill="black"/>
<path d="M15.401 26.7021H14.001V28.1075H15.401V26.7021Z" fill="black"/>
<path d="M16.8004 26.7021H15.4004V28.1075H16.8004V26.7021Z" fill="black"/>
<path d="M18.2008 26.7021H16.8008V28.1075H18.2008V26.7021Z" fill="black"/>
<path d="M19.6012 25.2969H18.2012V26.7023H19.6012V25.2969Z" fill="black"/>
<path d="M21.0016 25.2969H19.6016V26.7023H21.0016V25.2969Z" fill="black"/>
<path d="M22.401 23.8916H21.001V25.297H22.401V23.8916Z" fill="black"/>
<path d="M23.8014 23.8916H22.4014V25.297H23.8014V23.8916Z" fill="black"/>
<path d="M25.2008 22.4863H23.8008V23.8917H25.2008V22.4863Z" fill="black"/>
<path d="M25.2008 21.0806H23.8008V22.486H25.2008V21.0806Z" fill="black"/>
<path d="M26.6012 19.6753H25.2012V21.0807H26.6012V19.6753Z" fill="black"/>
<path d="M26.6012 18.27H25.2012V19.6754H26.6012V18.27Z" fill="black"/>
<path d="M28.0006 16.8647H26.6006V18.2701H28.0006V16.8647Z" fill="black"/>
<path d="M28.0006 15.459H26.6006V16.8644H28.0006V15.459Z" fill="black"/>
<path d="M28.0006 14.0537H26.6006V15.4591H28.0006V14.0537Z" fill="black"/>
<path d="M12.601 28.1074H14.001V26.702H12.601V28.1074Z" fill="black"/>
<path d="M11.2006 28.1074H12.6006V26.702H11.2006V28.1074Z" fill="black"/>
<path d="M9.80117 28.1074H11.2012V26.702H9.80117V28.1074Z" fill="black"/>
<path d="M8.40078 26.7021H9.80078V25.2968H8.40078V26.7021Z" fill="black"/>
<path d="M7.00039 26.7021H8.40039V25.2968H7.00039V26.7021Z" fill="black"/>
<path d="M5.60098 25.2969H7.00098V23.8915H5.60098V25.2969Z" fill="black"/>
<path d="M4.20059 25.2969H5.60059V23.8915H4.20059V25.2969Z" fill="black"/>
<path d="M2.80117 23.8916H4.20117V22.4862H2.80117V23.8916Z" fill="black"/>
<path d="M2.80117 22.4863H4.20117V21.0809H2.80117V22.4863Z" fill="black"/>
<path d="M1.40078 21.0806H2.80078V19.6752H1.40078L1.40078 21.0806Z" fill="black"/>
<path d="M1.40078 19.6753H2.80078V18.2699H1.40078L1.40078 19.6753Z" fill="black"/>
<path d="M0.000393391 18.27H1.40039L1.40039 16.8646H0.000393391L0.000393391 18.27Z" fill="black"/>
<path d="M0.000393391 16.8647H1.40039L1.40039 15.4594H0.000393391L0.000393391 16.8647Z" fill="black"/>
<path d="M0.000393391 15.459H1.40039L1.40039 14.0536H0.000393391L0.000393391 15.459Z" fill="black"/>
<path d="M16.8004 11.2432H15.4004V12.6485H16.8004V11.2432Z" fill="black"/>
<path d="M12.6002 11.2432H11.2002V12.6485H12.6002V11.2432Z" fill="black"/>
<path d="M12.6002 15.4595H11.2002V16.8649H12.6002V15.4595Z" fill="black"/>
<path d="M13.9996 16.8647H12.5996V18.2701H13.9996V16.8647Z" fill="black"/>
<path d="M15.4 16.8647H14V18.2701H15.4V16.8647Z" fill="black"/>
<path d="M16.8004 15.4595H15.4004V16.8649H16.8004V15.4595Z" fill="black"/>
</svg>
