<svg xmlns="http://www.w3.org/2000/svg" width="288" height="100" fill="none" viewBox="0 0 288 100"><path fill="#ff0" d="M188.532 54.637V34.769h-4.948v-9.934h-4.948V14.9h-9.896V9.934h-9.896V4.967h-29.687v4.967h-9.896v4.967h-9.896v9.934h-4.948v9.934h-4.948V64.57h4.948v9.934h4.948v9.934h9.896v4.967h9.896v4.967h29.687v-4.967h9.896v-4.967h9.896v-9.934h4.948V64.57h4.948z"/><path fill="#000" d="M148.95 0h-4.948v4.967h4.948zm4.948 0h-4.948v4.967h4.948zm4.948 0h-4.948v4.967h4.948zm4.948 4.967h-4.948v4.967h4.948z"/><path fill="#000" d="M168.742 4.967h-4.948v4.967h4.948zm4.948 4.967h-4.948v4.967h4.948z"/><path fill="#000" d="M178.637 9.934h-4.948v4.967h4.948zm4.949 4.967h-4.948v4.967h4.948zm0 4.967h-4.948v4.967h4.948zm4.947 4.967h-4.948v4.967h4.948zm0 4.967h-4.948v4.967h4.948zm4.948 4.967h-4.948v4.967h4.948zm0 4.967h-4.948v4.967h4.948zm0 4.967h-4.948v4.967h4.948zM139.054 4.967h4.948V0h-4.948zm-4.949 0h4.948V0h-4.948z"/><path fill="#000" d="M129.158 4.967h4.948V0h-4.948zm-4.948 4.967h4.948V4.967h-4.948z"/><path fill="#000" d="M119.262 9.934h4.948V4.967h-4.948zm-4.948 4.967h4.948V9.934h-4.948zm-4.948 0h4.947V9.934h-4.947z"/><path fill="#000" d="M104.418 19.868h4.948V14.9h-4.948zm0 4.967h4.948v-4.967h-4.948zm-4.948 4.967h4.948v-4.967H99.47zm0 4.967h4.948v-4.967H99.47zm-4.948 4.967h4.948v-4.967h-4.948zm0 4.967h4.948v-4.967h-4.948zm0 4.967h4.948v-4.967h-4.948zm54.428 44.703h-4.948v4.966h4.948zm4.948 0h-4.948v4.966h4.948zm4.948 0h-4.948v4.966h4.948zm4.948-4.967h-4.948v4.966h4.948z"/><path fill="#000" d="M168.742 89.406h-4.948v4.966h4.948zm4.948-4.967h-4.948v4.966h4.948z"/><path fill="#000" d="M178.637 84.439h-4.948v4.966h4.948zm4.949-4.968h-4.948v4.967h4.948z"/><path fill="#000" d="M183.586 74.505h-4.948v4.967h4.948zm4.947-4.967h-4.948v4.967h4.948zm0-4.968h-4.948v4.968h4.948zm4.948-4.966h-4.948v4.966h4.948zm0-4.967h-4.948v4.967h4.948zm0-4.967h-4.948v4.967h4.948zm-54.427 49.67h4.948v-4.968h-4.948zm-4.949 0h4.948v-4.968h-4.948z"/><path fill="#000" d="M129.158 99.34h4.948v-4.968h-4.948zm-4.948-4.968h4.948v-4.967h-4.948z"/><path fill="#000" d="M119.262 94.372h4.948v-4.967h-4.948zm-4.948-4.966h4.948v-4.967h-4.948zm-4.948 0h4.947v-4.967h-4.947zm-4.948-4.967h4.948v-4.967h-4.948zm0-4.968h4.948v-4.967h-4.948zm-4.948-4.967h4.948v-4.967H99.47z"/><path fill="#000" d="M99.47 69.538h4.948V64.57H99.47zm-4.948-4.968h4.948v-4.966h-4.948z"/><path fill="#000" d="M94.522 59.604h4.948v-4.967h-4.948zm0-4.967h4.948V49.67h-4.948zm59.374-14.901h-4.948v4.967h4.948zm-14.844 0h-4.948v4.967h4.948zm0 14.901h-4.948v4.967h4.948zM144 59.604h-4.948v4.967H144zm4.949 0h-4.948v4.967h4.948zm4.947-4.967h-4.948v4.967h4.948z"/><path fill="#ff0" d="M283.051 54.637V34.77h-4.948v-9.934h-4.948v-9.934h-9.896V9.934h-9.896V4.968h-29.687v4.966h-9.896v4.967h-9.896v9.934h-4.948v9.934h-4.948v29.802h4.948v9.934h4.948v9.934h9.896v4.967h9.896v4.967h29.687v-4.967h9.896v-4.967h9.896v-9.934h4.948V64.57h4.948v-9.934"/><path fill="#000" d="M243.467 0h-4.948v4.967h4.948z"/><path fill="#000" d="M248.415 0h-4.948v4.967h4.948zm4.948 0h-4.947v4.967h4.947zm4.948 4.968h-4.948v4.966h4.948zm4.948 0h-4.947v4.966h4.947zm4.948 4.967h-4.948v4.967h4.948zm4.947 0h-4.947v4.967h4.947zm4.949 4.966h-4.948v4.967h4.948zm0 4.967h-4.948v4.967h4.948zm4.947 4.967h-4.947v4.967h4.947zm0 4.968h-4.947v4.966h4.947zm4.949 4.967h-4.948v4.966h4.948zm0 4.966h-4.948v4.967h4.948zm0 4.967h-4.948v4.967h4.948zM233.572 4.968h4.948V0h-4.948zm-4.948 0h4.948V0h-4.948zm-4.948 0h4.948V0h-4.948zm-4.948 4.967h4.948V4.968h-4.948zm-4.949 0h4.948V4.968h-4.948z"/><path fill="#000" d="M208.832 14.901h4.948V9.934h-4.948zm-4.948 0h4.948V9.934h-4.948zm-4.947 4.967h4.948v-4.967h-4.948zm-.001 4.967h4.948v-4.967h-4.948zm-4.948 4.967h4.948v-4.967h-4.948zm0 4.968h4.948v-4.967h-4.948zm-4.949 4.966h4.948v-4.967h-4.948z"/><path fill="#ff0" d="M189.039 44.703h4.948v-4.967h-4.948zm.001 4.967h4.948v-4.967h-4.948z"/><path fill="#000" d="M243.467 94.373h-4.948v4.967h4.948z"/><path fill="#000" d="M248.415 94.373h-4.948v4.967h4.948zm4.948 0h-4.947v4.967h4.947zm4.948-4.967h-4.948v4.966h4.948zm4.948 0h-4.947v4.966h4.947zm4.948-4.966h-4.948v4.966h4.948zm4.947 0h-4.947v4.966h4.947zm4.949-4.968h-4.948v4.967h4.948zm0-4.967h-4.948v4.967h4.948zm4.947-4.967h-4.947v4.967h4.947zm0-4.968h-4.947v4.968h4.947zm4.949-4.966h-4.948v4.967h4.948zm0-4.967h-4.948v4.967h4.948zm-.001-4.967h-4.948v4.967h4.948zm-54.426 49.67h4.948v-4.968h-4.948zm-4.948 0h4.948v-4.968h-4.948z"/><path fill="#000" d="M223.677 99.34h4.948v-4.968h-4.948zm-4.949-4.967h4.948v-4.967h-4.948zm-4.949 0h4.948v-4.967h-4.948zm-4.947-4.967h4.948v-4.967h-4.948zm-4.948 0h4.948v-4.967h-4.948zm-4.947-4.967h4.948v-4.967h-4.948zm0-4.967h4.948v-4.967h-4.948zm-4.949-4.968h4.948v-4.967h-4.948z"/><path fill="#000" d="M193.988 69.538h4.948V64.57h-4.948zm-4.949-4.968h4.948v-4.966h-4.948z"/><path fill="#ff0" d="M189.039 59.604h4.948v-4.967h-4.948zm0-4.967h4.948V49.67h-4.948z"/><path fill="#000" d="M248.416 39.736h-4.948v4.967h4.948zm-14.844 0h-4.948v4.967h4.948zm0 14.901h-4.948v4.967h4.948zm4.948 4.967h-4.948v4.967h4.948z"/><path fill="#000" d="M243.468 59.604h-4.948v4.967h4.948zm4.948-4.967h-4.948v4.967h4.948z"/><path fill="#ff0" d="M94.01 54.637V34.769h-4.947v-9.934h-4.948V14.9h-9.896V9.934h-9.896V4.967H34.636v4.967H24.74v4.967h-9.896v9.934H9.896v9.934H4.948V64.57h4.948v9.934h4.948v9.934h9.896v4.967h9.896v4.967h29.687v-4.967h9.896v-4.967h9.896v-9.934h4.948V64.57h4.948v-9.933"/><path fill="#000" d="M54.428 0H49.48v4.967h4.948z"/><path fill="#000" d="M59.375 0h-4.948v4.967h4.948zm4.949 0h-4.948v4.967h4.948zm4.948 4.967h-4.948v4.967h4.948zm4.948 0h-4.948v4.967h4.948zm4.948 4.967H74.22v4.967h4.948z"/><path fill="#000" d="M84.115 9.934h-4.948v4.967h4.948zm4.949 4.967h-4.948v4.967h4.948zm0 4.967h-4.948v4.967h4.948zm4.947 4.967h-4.947v4.967h4.947zm0 4.967h-4.947v4.967h4.947zm4.948 4.967H94.01v4.967h4.948z"/><path fill="#ff0" d="M98.959 39.736H94.01v4.967h4.948zm0 4.967H94.01v4.967h4.948z"/><path fill="#000" d="M44.532 4.967h4.948V0h-4.948zm-4.949 0h4.948V0h-4.948z"/><path fill="#000" d="M34.636 4.967h4.947V0h-4.947zm-4.948 4.967h4.948V4.967h-4.948zm-4.948 0h4.948V4.967H24.74zm-4.948 4.967h4.948V9.934h-4.948z"/><path fill="#000" d="M14.845 14.901h4.948V9.934h-4.948zm-4.948 4.967h4.948v-4.967H9.897zm0 4.967h4.948v-4.967H9.897zm-4.948 4.967h4.947v-4.967H4.95zm0 4.967h4.947v-4.967H4.95zM0 39.736h4.948V34.77H0zm0 4.967h4.948v-4.967H0zm0 4.967h4.948v-4.967H0zm54.428 44.703H49.48v4.966h4.948z"/><path fill="#000" d="M59.375 94.373h-4.948v4.966h4.948zm4.949 0h-4.948v4.966h4.948zm4.948-4.967h-4.948v4.966h4.948zm4.948 0h-4.948v4.966h4.948zm4.948-4.967H74.22v4.966h4.948z"/><path fill="#000" d="M84.115 84.439h-4.948v4.966h4.948zm4.949-4.968h-4.948v4.967h4.948z"/><path fill="#000" d="M89.064 74.505h-4.948v4.967h4.948zm4.947-4.967h-4.947v4.967h4.947zm0-4.968h-4.947v4.968h4.947zm4.948-4.966H94.01v4.966h4.948z"/><path fill="#ff0" d="M98.959 54.637H94.01v4.967h4.948zm0-4.967H94.01v4.967h4.948z"/><path fill="#000" d="M44.532 99.34h4.948v-4.968h-4.948zm-4.949 0h4.948v-4.968h-4.948z"/><path fill="#000" d="M34.636 99.34h4.947v-4.968h-4.947zm-4.948-4.968h4.948v-4.967h-4.948zm-4.948 0h4.948v-4.967H24.74zm-4.948-4.967h4.948v-4.967h-4.948z"/><path fill="#000" d="M14.845 89.405h4.948v-4.967h-4.948z"/><path fill="#000" d="M9.897 84.439h4.948v-4.967H9.897zm0-4.968h4.948v-4.967H9.897zm-4.948-4.967h4.947v-4.967H4.95z"/><path fill="#000" d="M4.949 69.538h4.947V64.57H4.95zM0 64.57h4.948v-4.966H0z"/><path fill="#000" d="M0 59.604h4.948v-4.967H0zm0-4.967h4.948v-4.968H0zm59.376-14.901h-4.948v4.967h4.948zm-14.844 0h-4.947v4.967h4.947zm0 14.901h-4.947v4.967h4.947zm4.948 4.967h-4.948v4.967h4.948zm4.948 0h-4.947v4.967h4.947zm4.948-4.967h-4.948v4.967h4.948z"/></svg>