<svg xmlns="http://www.w3.org/2000/svg" width="120" height="109" fill="none" viewBox="0 0 120 109"><g clip-path="url(#clip0_1741_64)"><path fill="#000" d="M40.407 45.273v-4.124h-4.134v8.258h4.134zm8.258-8.258h-8.258v4.134H52.79v-4.134zm4.125 12.392h4.134V41.15h-4.135v8.258m0 4.122h-4.124v4.135h-4.134v16.517h-4.124v4.134H52.79v-4.134h4.135v-8.258h4.123V49.407h-4.123v4.124zM40.407 65.924h-4.134v8.258h4.134zm-4.134-8.259v-8.258h-4.135v16.517h4.135zM73.44 45.273v-4.124h-4.124v8.258h4.124zm8.258-8.258H73.44v4.134h12.393v-4.134zm4.135 12.392h4.123V41.15h-4.123v8.258m0 4.122h-4.135v4.135h-4.123v16.517H73.44v4.134h12.393v-4.134h4.123v-8.258h4.135V49.407h-4.135v4.124zM73.44 65.924h-4.124v8.258h4.124zm-4.124-8.259v-8.258h-4.134v16.517h4.134zM0 38.182V49.09h5.455v5.062h5.454v-5.455H5.455v-15.97H0zm10.91-10.909H5.454v5.454h5.454zm10.908 0h10.909v-10.91h-5.454v5.455H10.909v5.455zM38.182 10.91h-5.455v5.454h5.455zm5.454-5.455h-5.454v5.454h5.454zM49.091 0h-5.455v5.455h5.455zm5.454 0h-5.454v5.455h5.454zM60 5.455h-5.455v5.454H60zm5.454 5.455H60v5.454h5.454zm18.317-5.455H65.455v5.454h21.818V5.455zm8.956 5.455h-5.454v5.454h5.454z"/><path fill="#d390ff" d="M109.091 54.153V49.09h-5.455V38.18h5.455V27.274h-5.455v-5.455H87.273V10.91H65.455v5.455H60V10.91h-5.455V5.455H43.637v5.454h-5.454v5.455h-5.455v10.909H10.91v5.454H5.455v15.971h5.454v5.455h5.455v5.454h5.454v10.91h-5.454v5.454h-5.455V86.88h16.364v5.455h5.454v5.454h5.455v5.455H49.09v-5.455h16.364v5.455h16.363v-5.455h5.455v-5.454h5.454v5.454h16.364v-5.454h5.455v-10.91h-5.455v-5.454h-5.455v-5.455h5.455v-5.454h5.455v-10.91zm-48.044-.622v12.393h-4.134v8.258h-4.135v4.134H40.386v-4.134H36.25v-8.258h-4.135V49.407h4.135V41.15h4.135v-4.134h12.392v4.134h4.135v8.258h4.134v4.135zm33.044 0v12.393h-4.135v8.258h-4.134v4.134H73.429v-4.134h-4.134v-8.258H65.16V49.407h4.135V41.15h4.134v-4.134h12.393v4.134h4.134v8.258h4.135v4.135z"/><path fill="#000" d="M92.727 16.363h-5.454v5.455h5.454zm5.455 0h-5.455v5.455h5.455zm5.454 0h-5.454v5.455h5.454zm5.455 0h-5.455v5.455h5.455zm0 5.455h-5.455v5.455h5.455zm5.454 10.909v-5.454h-5.454v10.909h5.454zm-5.454 15.971V38.182h-5.455V49.09h5.455v5.062h5.455v-5.455zm5.454 10.909v5.455H120V54.153h-5.455zm0 5.455h-5.454v5.454h5.454zm-5.454 5.454h-5.455v5.455h5.455zm5.454 5.454h-5.454v5.456h5.454zm0 16.365H120V81.426h-5.455zm0 0h-5.454v5.454h5.454zM98.182 97.79h-5.455v5.454h16.364v-5.455H98.182m-5.455-5.454h-5.454v5.454h5.454zm-5.454 5.455h-5.455v5.454h5.455zm-16.363 5.454h-5.455v5.454h16.363v-5.454zM60 97.79H49.09v5.454h16.363v-5.455zm-21.818 5.454v5.454H49.09v-5.454zm0-5.454h-5.455v5.454h5.455zm-5.455-5.455h-5.454v5.454h5.454zm-5.454-5.455H10.909v5.454h16.364zM5.455 81.426v5.454h5.454V75.971H5.455zm10.909-10.91h-5.455v5.455h5.455zm-.001 0h5.455V59.607h-5.455zm.001-16.363h-5.455v5.454h5.455z"/></g><defs><clipPath id="clip0_1741_64"><path fill="#fff" d="M0 0h120v108.698H0z"/></clipPath></defs></svg>