<svg width="28" height="29" viewBox="0 0 28 29" fill="none" xmlns="http://www.w3.org/2000/svg">
<path d="M23.1301 16.0278H26.7822V12.3291H23.1301V9.86325H21.9127V8.63034H23.1301V7.39744H24.3475V6.16453H23.1301V4.93163H21.9127V3.69872H20.6953V4.93163H19.478V6.16453H18.2606V4.93163H15.8258V1.23291H12.1737V4.93163H9.73894V6.16453H8.52156V4.93163H7.30418V3.69872H6.0868V4.93163H4.86942V6.16453H3.65204V7.39744H4.86942V8.63034H6.0868V9.86325H4.86942V12.3291H1.21729V16.0278H4.86942V18.4936H6.0868V19.7265H4.86942V20.9594H3.65204V22.1923H4.86942V23.4252H6.0868V24.6581H7.30418V23.4252H8.52156V22.1923H9.73894V23.4252H12.1737V27.1239H15.8258V23.4252H18.2606V22.1923H19.478V23.4252H20.6953V24.6581H21.9127V23.4252H23.1301V22.1923H24.3475V20.9594H23.1301V19.7265H21.9127V18.4936H23.1301V16.0278ZM18.2606 13.562V16.0278H17.0432V17.2607H15.8258V18.4936H12.1737V17.2607H10.9563V16.0278H9.73894V12.3291H10.9563V11.0962H12.1737V9.86325H15.8258V11.0962H17.0432V12.3291H18.2606V13.562Z" fill="#00CED4"/>
<path d="M14.608 0H13.3906V1.23291H14.608V0Z" fill="black"/>
<path d="M15.8253 0H14.6079V1.23291H15.8253V0Z" fill="black"/>
<path d="M17.0426 0H15.8252V1.23291H17.0426V0Z" fill="black"/>
<path d="M17.0426 1.23291H15.8252V2.46582H17.0426V1.23291Z" fill="black"/>
<path d="M17.0426 2.46582H15.8252V3.69873H17.0426V2.46582Z" fill="black"/>
<path d="M17.0426 3.69873H15.8252V4.93164H17.0426V3.69873Z" fill="black"/>
<path d="M18.2599 3.69873H17.0425V4.93164H18.2599V3.69873Z" fill="black"/>
<path d="M19.4776 4.93164H18.2603V6.16455H19.4776V4.93164Z" fill="black"/>
<path d="M20.6949 3.69873H19.4775V4.93164H20.6949V3.69873Z" fill="black"/>
<path d="M21.9122 2.46582H20.6948V3.69873H21.9122V2.46582Z" fill="black"/>
<path d="M23.1295 3.69873H21.9121V4.93164H23.1295V3.69873Z" fill="black"/>
<path d="M24.3468 4.93164H23.1294V6.16455H24.3468V4.93164Z" fill="black"/>
<path d="M25.5645 6.16455H24.3472V7.39746H25.5645V6.16455Z" fill="black"/>
<path d="M24.3468 7.39746H23.1294V8.63037H24.3468V7.39746Z" fill="black"/>
<path d="M23.1295 8.63037H21.9121V9.86328H23.1295V8.63037Z" fill="black"/>
<path d="M24.3468 9.86328H23.1294V11.0962H24.3468V9.86328Z" fill="black"/>
<path d="M24.3468 11.0962H23.1294V12.3291H24.3468V11.0962Z" fill="black"/>
<path d="M25.5645 11.0962H24.3472V12.3291H25.5645V11.0962Z" fill="black"/>
<path d="M26.7818 11.0962H25.5645V12.3291H26.7818V11.0962Z" fill="black"/>
<path d="M27.9991 11.0962H26.7817V12.3291H27.9991V11.0962Z" fill="black"/>
<path d="M27.9991 12.3291H26.7817V13.562H27.9991V12.3291Z" fill="black"/>
<path d="M27.9991 13.562H26.7817V14.7949H27.9991V13.562Z" fill="black"/>
<path d="M13.391 1.23291L14.6084 1.23291V5.126e-06L13.391 5.126e-06V1.23291Z" fill="black"/>
<path d="M12.1737 1.23291L13.3911 1.23291V5.126e-06L12.1737 5.126e-06V1.23291Z" fill="black"/>
<path d="M10.9564 1.23291L12.1738 1.23291V5.126e-06L10.9564 5.126e-06V1.23291Z" fill="black"/>
<path d="M10.9564 2.46582H12.1738V1.23292L10.9564 1.23292V2.46582Z" fill="black"/>
<path d="M10.9564 3.69873H12.1738V2.46583H10.9564V3.69873Z" fill="black"/>
<path d="M10.9564 4.93164H12.1738V3.69874H10.9564V4.93164Z" fill="black"/>
<path d="M9.73916 4.93164H10.9565V3.69874H9.73916V4.93164Z" fill="black"/>
<path d="M8.52139 6.16455H9.73877V4.93165H8.52139V6.16455Z" fill="black"/>
<path d="M7.30411 4.93164H8.52148V3.69874H7.30411V4.93164Z" fill="black"/>
<path d="M6.08682 3.69873H7.3042V2.46583H6.08682V3.69873Z" fill="black"/>
<path d="M4.86954 4.93164H6.08691V3.69874H4.86954V4.93164Z" fill="black"/>
<path d="M3.65225 6.16455H4.86963V4.93165H3.65225V6.16455Z" fill="black"/>
<path d="M2.43448 7.39746H3.65186V6.16456H2.43448V7.39746Z" fill="black"/>
<path d="M3.65225 8.63037H4.86963V7.39747H3.65225V8.63037Z" fill="black"/>
<path d="M4.86954 9.86328H6.08691V8.63038H4.86954V9.86328Z" fill="black"/>
<path d="M3.65225 11.0962H4.86963V9.86329H3.65225V11.0962Z" fill="black"/>
<path d="M3.65225 12.3291H4.86963V11.0962H3.65225V12.3291Z" fill="black"/>
<path d="M2.43448 12.3291H3.65186V11.0962H2.43448V12.3291Z" fill="black"/>
<path d="M1.21719 12.3291H2.43457V11.0962H1.21719L1.21719 12.3291Z" fill="black"/>
<path d="M-9.38177e-05 12.3291H1.21729L1.21729 11.0962H-9.38177e-05L-9.38177e-05 12.3291Z" fill="black"/>
<path d="M-9.38177e-05 13.562H1.21729L1.21729 12.3291H-9.38177e-05L-9.38177e-05 13.562Z" fill="black"/>
<path d="M-9.38177e-05 14.7949H1.21729L1.21729 13.562H-9.38177e-05L-9.38177e-05 14.7949Z" fill="black"/>
<path d="M13.391 28.3569H14.6084V27.124H13.391V28.3569Z" fill="black"/>
<path d="M12.1737 28.3569H13.3911V27.124H12.1737V28.3569Z" fill="black"/>
<path d="M10.9564 28.3569H12.1738V27.124H10.9564V28.3569Z" fill="black"/>
<path d="M10.9564 27.124H12.1738V25.8911H10.9564V27.124Z" fill="black"/>
<path d="M10.9564 25.8911H12.1738V24.6582H10.9564V25.8911Z" fill="black"/>
<path d="M10.9564 24.6582H12.1738V23.4253H10.9564V24.6582Z" fill="black"/>
<path d="M9.73916 24.6582H10.9565V23.4253H9.73916V24.6582Z" fill="black"/>
<path d="M8.52139 23.4253H9.73877V22.1924H8.52139V23.4253Z" fill="black"/>
<path d="M7.30411 24.6582H8.52148V23.4253H7.30411V24.6582Z" fill="black"/>
<path d="M6.08682 25.8911H7.3042V24.6582H6.08682V25.8911Z" fill="black"/>
<path d="M4.86954 24.6582H6.08691V23.4253H4.86954V24.6582Z" fill="black"/>
<path d="M3.65225 23.4253H4.86963V22.1924H3.65225V23.4253Z" fill="black"/>
<path d="M2.43448 22.1924H3.65186V20.9595H2.43448V22.1924Z" fill="black"/>
<path d="M3.65225 20.9595H4.86963V19.7266H3.65225V20.9595Z" fill="black"/>
<path d="M4.86954 19.7266H6.08691V18.4937H4.86954V19.7266Z" fill="black"/>
<path d="M3.65225 18.4937H4.86963V17.2607H3.65225V18.4937Z" fill="black"/>
<path d="M3.65225 17.2607H4.86963V16.0278H3.65225V17.2607Z" fill="black"/>
<path d="M2.43448 17.2607H3.65186V16.0278H2.43448V17.2607Z" fill="black"/>
<path d="M1.21719 17.2607H2.43457V16.0278H1.21719L1.21719 17.2607Z" fill="black"/>
<path d="M-9.38177e-05 17.2607H1.21729L1.21729 16.0278H-9.38177e-05L-9.38177e-05 17.2607Z" fill="black"/>
<path d="M-9.38177e-05 16.0278H1.21729L1.21729 14.7949H-9.38177e-05L-9.38177e-05 16.0278Z" fill="black"/>
<path d="M-9.38177e-05 14.7949H1.21729L1.21729 13.562H-9.38177e-05L-9.38177e-05 14.7949Z" fill="black"/>
<path d="M14.608 27.124H13.3906V28.3569H14.608V27.124Z" fill="black"/>
<path d="M15.8253 27.124H14.6079V28.3569H15.8253V27.124Z" fill="black"/>
<path d="M17.0426 27.124H15.8252V28.3569H17.0426V27.124Z" fill="black"/>
<path d="M17.0426 25.8911H15.8252V27.124H17.0426V25.8911Z" fill="black"/>
<path d="M17.0426 24.6582H15.8252V25.8911H17.0426V24.6582Z" fill="black"/>
<path d="M17.0426 23.4253H15.8252V24.6582H17.0426V23.4253Z" fill="black"/>
<path d="M18.2599 23.4253H17.0425V24.6582H18.2599V23.4253Z" fill="black"/>
<path d="M19.4776 22.1924H18.2603V23.4253H19.4776V22.1924Z" fill="black"/>
<path d="M20.6949 23.4253H19.4775V24.6582H20.6949V23.4253Z" fill="black"/>
<path d="M21.9122 24.6582H20.6948V25.8911H21.9122V24.6582Z" fill="black"/>
<path d="M23.1295 23.4253H21.9121V24.6582H23.1295V23.4253Z" fill="black"/>
<path d="M24.3468 22.1924H23.1294V23.4253H24.3468V22.1924Z" fill="black"/>
<path d="M25.5645 20.9595H24.3472V22.1924H25.5645V20.9595Z" fill="black"/>
<path d="M24.3468 19.7266H23.1294V20.9595H24.3468V19.7266Z" fill="black"/>
<path d="M23.1295 18.4937H21.9121V19.7266H23.1295V18.4937Z" fill="black"/>
<path d="M24.3468 17.2607H23.1294V18.4936H24.3468V17.2607Z" fill="black"/>
<path d="M24.3468 16.0278H23.1294V17.2607H24.3468V16.0278Z" fill="black"/>
<path d="M25.5645 16.0278H24.3472V17.2607H25.5645V16.0278Z" fill="black"/>
<path d="M26.7818 16.0278H25.5645V17.2607H26.7818V16.0278Z" fill="black"/>
<path d="M27.9991 16.0278H26.7817V17.2607H27.9991V16.0278Z" fill="black"/>
<path d="M27.9991 14.7949H26.7817V16.0278H27.9991V14.7949Z" fill="black"/>
<path d="M27.9991 13.562H26.7817V14.7949H27.9991V13.562Z" fill="black"/>
<path d="M14.6085 9.86328H13.3911V11.0962H14.6085V9.86328Z" fill="black"/>
<path d="M15.8258 9.86328H14.6084V11.0962H15.8258V9.86328Z" fill="black"/>
<path d="M17.0431 11.0962H15.8257V12.3291H17.0431V11.0962Z" fill="black"/>
<path d="M18.2608 12.3291H17.0435V13.562H18.2608V12.3291Z" fill="black"/>
<path d="M18.2608 13.562H17.0435V14.7949H18.2608V13.562Z" fill="black"/>
<path d="M18.2608 14.7949H17.0435V16.0278H18.2608V14.7949Z" fill="black"/>
<path d="M17.0431 16.0278H15.8257V17.2607H17.0431V16.0278Z" fill="black"/>
<path d="M15.8258 17.2607H14.6084V18.4936H15.8258V17.2607Z" fill="black"/>
<path d="M14.6085 17.2607H13.3911V18.4936H14.6085V17.2607Z" fill="black"/>
<path d="M13.3912 17.2607H12.1738V18.4936H13.3912V17.2607Z" fill="black"/>
<path d="M12.1739 16.0278H10.9565V17.2607H12.1739V16.0278Z" fill="black"/>
<path d="M10.9561 14.7949H9.73877V16.0278H10.9561V14.7949Z" fill="black"/>
<path d="M10.9561 13.562H9.73877V14.7949H10.9561V13.562Z" fill="black"/>
<path d="M10.9561 12.3291H9.73877V13.562H10.9561V12.3291Z" fill="black"/>
<path d="M12.1739 11.0962H10.9565V12.3291H12.1739V11.0962Z" fill="black"/>
<path d="M13.3912 9.86328H12.1738V11.0962H13.3912V9.86328Z" fill="black"/>
</svg>
