<svg width="45" height="32" viewBox="0 0 45 32" fill="none" xmlns="http://www.w3.org/2000/svg">
<g clip-path="url(#clip0_1844_110851)">
<path d="M44.0628 4.99718C43.5442 3.02916 42.0217 1.4826 40.0844 0.955786C36.5727 0 22.5 0 22.5 0C22.5 0 8.42731 0 4.91933 0.955786C2.98197 1.4826 1.4595 3.02916 0.940896 4.99718C0 8.56068 0 16 0 16C0 16 0 23.4393 0.940896 27.0028C1.4595 28.9708 2.98197 30.5174 4.91933 31.0442C8.42731 32 22.5 32 22.5 32C22.5 32 36.5727 32 40.0807 31.0442C42.018 30.5174 43.5405 28.9708 44.0591 27.0028C45 23.4393 45 16 45 16C45 16 45 8.56068 44.0591 4.99718H44.0628Z" fill="#FF0000"/>
<path d="M17.999 22.8557L29.6935 15.9996L17.999 9.14355V22.8557Z" fill="white"/>
</g>
<defs>
<clipPath id="clip0_1844_110851">
<rect width="45" height="32" fill="white"/>
</clipPath>
</defs>
</svg>
